<?xml version="1.0" standalone="no"?>
<!DOCTYPE svg PUBLIC "-//W3C//DTD SVG 1.1//EN" "http://www.w3.org/Graphics/SVG/1.1/DTD/svg11.dtd" >
<svg xmlns="http://www.w3.org/2000/svg" xmlns:xlink="http://www.w3.org/1999/xlink" version="1.1">
<metadata>
Created by FontForge 20201107 at Sun Apr 30 19:17:56 2017
 By Jimmy Wärting
Copyright (c) 2011, Cyreal (www.cyreal.org) with Reserved Font Name 'Alike'.
</metadata>
<defs>
<font id="Alike-Regular" horiz-adv-x="684" >
  <font-face 
    font-family="Alike"
    font-weight="400"
    font-stretch="normal"
    units-per-em="1000"
    panose-1="2 0 0 0 0 0 0 0 0 0"
    ascent="800"
    descent="-200"
    x-height="500"
    cap-height="705"
    bbox="-25 -269.017 1037 984"
    underline-thickness="50"
    underline-position="-100"
    unicode-range="U+0020-2212"
  />
<missing-glyph horiz-adv-x="529" 
d="M50 0v500h414v-500h-414zM112 438v-376h290v376h-290z" />
    <glyph glyph-name=".notdef" horiz-adv-x="529" 
d="M50 0v500h414v-500h-414zM112 438v-376h290v376h-290z" />
    <glyph glyph-name=".null" horiz-adv-x="0" 
 />
    <glyph glyph-name="nonmarkingreturn" horiz-adv-x="260" 
 />
    <glyph glyph-name="space" unicode=" " horiz-adv-x="237" 
 />
    <glyph glyph-name="exclam" unicode="!" horiz-adv-x="254" 
d="M105 170l-31 530q5 7 22 12t30 5q15 0 33 -5t22 -12l-30 -530q-25 -7 -46 0zM61 50q0 19 22 37.5t45 18.5q25 0 42 -21.5t17 -43.5q0 -20 -21.5 -38t-46.5 -18q-23 0 -40.5 21.5t-17.5 43.5z" />
    <glyph glyph-name="quotedbl" unicode="&#x22;" horiz-adv-x="360" 
d="M146 707l-31 -269q-22 -8 -40 0l-29 269q5 6 21 11.5t29 5.5q14 0 30 -5t20 -12zM303 707l-31 -269q-22 -8 -40 0l-29 269q5 6 21 11.5t29 5.5q14 0 30 -5t20 -12z" />
    <glyph glyph-name="numbersign" unicode="#" horiz-adv-x="528" 
d="M9 0l73 215h-87q-1 12 2.5 26t8.5 20h91l52 158h-107q-1 12 2.5 26t8.5 20h111q17 54 39.5 129t33.5 111q44 10 61 0l-82 -240h153q17 54 39.5 129t33.5 111q44 10 61 0l-82 -240h97q0 -29 -11 -46h-101l-52 -158h117q0 -29 -11 -46h-120q-19 -60 -65 -215q-45 -9 -61 0
l73 215h-152q-19 -60 -65 -215q-45 -9 -61 0zM201 419l-52 -158h153l52 158h-153z" />
    <glyph glyph-name="dollar" unicode="$" horiz-adv-x="542" 
d="M238 -84l5 83q-123 2 -188 33q0 85 25 167q2 0 6 0.5t6 0.5q16 0 30 -6l15 -127q60 -15 104 -15q39 0 75.5 10t59 33.5t22.5 61.5q1 28 -5.5 47.5t-24.5 38t-55 40t-101 49.5q-51 22 -82.5 45t-47 48t-20 50.5t-4.5 55.5q0 72 54.5 116t142.5 54l-6 88q19 6 39 6
q18 0 36 -6l-9 -85q82 -2 152 -29q3 -73 -29 -162q-4 -1 -13 -1q-17 0 -30 6l-10 127q-44 13 -86 13q-66 0 -108 -29t-42 -82q-1 -46 28 -74t109 -64q125 -53 169 -98.5t44 -126.5q0 -74 -54.5 -122t-140.5 -60l8 -86q-18 -6 -35 -6q-19 0 -39 6z" />
    <glyph glyph-name="percent" unicode="%" horiz-adv-x="732" 
d="M193 720q67 -1 104 -50.5t37 -118.5q0 -74 -39 -126t-106 -53q-70 1 -109 51.5t-39 120.5q0 73 40.5 124t111.5 52zM271 557q-2 53 -23 89t-59 37q-40 -1 -62 -39t-22 -95q0 -58 22.5 -98.5t61.5 -40.5q38 0 60.5 41.5t21.5 105.5zM545 706l-290 -706q-34 -13 -67 -7
l290 707q35 12 67 6zM549 328q67 -1 104 -50.5t37 -118.5q0 -74 -39 -126t-106 -53q-70 1 -109 51.5t-39 120.5q0 73 40.5 124t111.5 52zM627 165q-2 53 -23 89t-59 37q-40 -1 -62 -39t-22 -95q0 -58 22.5 -98.5t61.5 -40.5q38 0 60.5 41.5t21.5 105.5z" />
    <glyph glyph-name="ampersand" unicode="&#x26;" horiz-adv-x="731" 
d="M558 0l-73 78q-93 -94 -218 -93q-106 3 -161.5 58t-55.5 136q0 63 50.5 122.5t122.5 78.5q-75 97 -74 174q0 60 43.5 102.5t121.5 43.5q69 0 111.5 -38.5t42.5 -93.5q0 -62 -39 -116t-92 -76q49 -59 168 -190q52 101 66 161l-77 20q-3 19 5 35q70 -5 103 -5q36 0 106 5
q2 -18 -5 -35q-62 -11 -77 -20q-20 -77 -87 -198l77 -82q31 -32 109 -37q3 -19 -5 -35q-90 4 -162 5zM450 115q-136 149 -203 234q-51 -19 -77 -60.5t-26 -94.5q1 -66 49 -104.5t116 -38.5q86 1 141 64zM228 575q-1 -38 14 -69.5t69 -97.5q43 23 62 65t19 85q0 96 -85 96
q-33 0 -56 -21t-23 -58z" />
    <glyph glyph-name="quotesingle" unicode="'" horiz-adv-x="191" 
d="M146 707l-31 -269q-22 -8 -40 0l-29 269q5 6 21 11.5t29 5.5q14 0 30 -5t20 -12z" />
    <glyph glyph-name="parenleft" unicode="(" horiz-adv-x="284" 
d="M36 285q0 146 53.5 287.5t155.5 217.5q20 -1 29 -22q-58 -61 -103.5 -192t-46.5 -291q1 -159 46.5 -290t103.5 -193q-10 -17 -29 -22q-71 52 -119 141t-69 182t-21 182z" />
    <glyph glyph-name="parenright" unicode=")" horiz-adv-x="284" 
d="M248 285q0 -89 -21 -182t-69 -182t-119 -141q-19 5 -29 22q58 62 103.5 193t46.5 290q-1 160 -46.5 291t-103.5 192q9 21 29 22q102 -76 155.5 -217.5t53.5 -287.5z" />
    <glyph glyph-name="asterisk" unicode="*" horiz-adv-x="432" 
d="M201 499l-114 -82q-12 -1 -25 21q-10 23 -7 33l130 56l-129 58q-2 15 6 33q15 20 25 21l115 -85l-15 141q10 10 32 11q24 -1 31 -11l-17 -142l115 84q10 -2 26 -22q11 -22 6 -33l-131 -56l130 -58q3 -10 -7 -33q-13 -20 -25 -21l-115 84l15 -140q-7 -9 -31 -11
q-24 1 -31 11l16 141v0z" />
    <glyph glyph-name="plus" unicode="+" horiz-adv-x="485" 
d="M273 510v-161h169q-2 -47 -11 -64h-158v-172q-11 -2 -35.5 2t-30.5 9v161h-166q-1 13 2.5 35.5t8.5 28.5h155v172q46 -2 66 -11z" />
    <glyph glyph-name="comma" unicode="," horiz-adv-x="235" 
d="M47 50q0 25 19 40.5t48 15.5q37 0 58 -33t21 -74q0 -53 -24 -97.5t-63 -66.5q-17 6 -26 28q25 16 42.5 46t17.5 58q0 18 -35 18q-24 0 -41 18.5t-17 46.5z" />
    <glyph glyph-name="hyphen" unicode="-" horiz-adv-x="526" 
d="M452 285h-390q-1 14 2.5 36t8.5 28h390q-2 -47 -11 -64z" />
    <glyph glyph-name="period" unicode="." horiz-adv-x="220" 
d="M47 50q0 19 22 37.5t45 18.5q25 0 42 -21.5t17 -43.5q0 -20 -21.5 -38t-46.5 -18q-23 0 -40.5 21.5t-17.5 43.5z" />
    <glyph glyph-name="slash" unicode="/" horiz-adv-x="466" 
d="M31 -100l339 800q44 10 67 7l-338 -799q-34 -12 -68 -8z" />
    <glyph glyph-name="zero" unicode="0" horiz-adv-x="610" 
d="M452 342q0 55 -7.5 114t-25 108.5t-46.5 79t-68 29.5q-40 0 -68.5 -29.5t-46 -79t-25 -108.5t-7.5 -114q0 -57 7.5 -113.5t24.5 -102t46 -73.5t69 -28q39 0 68 27t46.5 73.5t25 102.5t7.5 114zM52 338q0 85 17.5 153.5t50.5 118t80 76.5t105 27q57 0 103.5 -26t80 -75
t51.5 -119t18 -155q0 -89 -18.5 -156t-53 -111t-81 -65t-100.5 -21t-100.5 21t-80.5 64.5t-53 109.5t-19 158z" />
    <glyph glyph-name="one" unicode="1" horiz-adv-x="360" 
d="M239 690v-640l98 -20q3 -19 -5 -35q-90 5 -142 5q-49 0 -142 -5q-3 19 2 35q69 10 89 20v561l-109 10q-3 20 5 35q93 18 164 45q19 -1 40 -11z" />
    <glyph glyph-name="two" unicode="2" horiz-adv-x="518" 
d="M130 75h283l22 103q21 4 36 -3q10 -73 10 -175h-442v55q17 20 68.5 77t87 98.5t73.5 96t60 108t22 100.5q0 125 -128 125q-45 0 -96 -20l-13 -131q-20 -8 -42 -3q-24 97 -22 164q98 43 188 43q35 0 62 -2.5t57.5 -12.5t52.5 -29t36.5 -52.5t14.5 -84.5q0 -53 -44 -124.5
t-96 -129.5t-118 -124t-75 -76z" />
    <glyph glyph-name="three" unicode="3" horiz-adv-x="512" 
d="M459 180q0 -88 -68.5 -142.5t-165.5 -54.5q-94 0 -179 38q3 99 25 164q4 1 11 1q9 0 25 -6l17 -129q46 -16 90 -16q60 0 99.5 38t39.5 105q-1 161 -184 165v40q76 3 122.5 46t46.5 106q-1 66 -33 97t-83 31q-39 0 -80 -18l-19 -125q-12 -6 -25 -6q-7 0 -11 1
q-23 90 -23 159q88 38 181 39q82 1 133.5 -41.5t51.5 -128.5q0 -63 -45 -110t-107 -61v-4q91 -13 136 -58.5t45 -129.5z" />
    <glyph glyph-name="four" unicode="4" horiz-adv-x="560" 
d="M342 598l-60 -92l-166 -234h223v222l5 104h-2zM339 50v154h-302q-8 22 -7 35l334 481q34 16 70 18v-466h105q6 -37 -10 -68h-95v-154l82 -20q3 -19 -5 -35q-90 5 -122 5q-39 0 -132 -5q-3 19 2 35q45 6 80 20z" />
    <glyph glyph-name="five" unicode="5" horiz-adv-x="502" 
d="M467 222q-1 -102 -79 -171t-181 -69q-90 0 -161 48q4 82 24 165q22 -1 35 -6l19 -131q45 -22 91 -22q64 0 106.5 44t43.5 123q0 162 -185 162q-41 0 -104 -10v345h348q2 -12 2 -23q0 -38 -16 -67h-273l-4 -194q55 13 109 13q100 0 162.5 -56t62.5 -151z" />
    <glyph glyph-name="six" unicode="6" horiz-adv-x="546" 
d="M442 666q-253 -37 -294 -256q79 51 166 53q92 -1 151 -66t59 -180q-2 -106 -68.5 -169t-159.5 -63q-123 0 -188.5 84t-65.5 226q2 190 105.5 294.5t288.5 130.5q4 -7 6 -24t0 -30zM140 323q1 -148 43.5 -221.5t111.5 -73.5q57 0 93 54t36 136q0 91 -38 139.5t-100 48.5
q-77 -2 -145 -45q-1 -13 -1 -38z" />
    <glyph glyph-name="seven" unicode="7" horiz-adv-x="475" 
d="M383 625h-284l-18 -105q-21 -6 -39 0q-14 105 -16 180h439q5 -15 0 -40l-276 -660h-90l287 622z" />
    <glyph glyph-name="eight" unicode="8" horiz-adv-x="547" 
d="M508 188q0 -90 -73 -146.5t-171 -56.5q-97 0 -161.5 52.5t-64.5 140.5q0 67 36.5 109.5t110.5 73.5q-113 70 -113 173q0 74 56.5 126t149.5 52q88 0 140 -47t52 -118q1 -97 -118 -172q73 -38 114.5 -82.5t41.5 -104.5zM130 183q0 -75 42 -116t105 -41q62 0 102 35t40 98
q0 30 -16.5 56.5t-46.5 48.5t-57 36.5t-70 35.5q-97 -61 -99 -153zM382 540q0 66 -34.5 98.5t-82.5 32.5q-50 0 -79 -29.5t-29 -81.5q1 -59 44.5 -95t106.5 -64q74 59 74 139z" />
    <glyph glyph-name="nine" unicode="9" horiz-adv-x="546" 
d="M104 39q253 36 294 256q-77 -51 -166 -53q-88 0 -148.5 63.5t-61.5 182.5q1 103 66.5 167t161.5 65q121 0 187.5 -84t66.5 -226q-1 -188 -105 -293.5t-289 -131.5q-4 8 -6 25.5t0 28.5zM406 382q-1 147 -43 221t-112 74q-58 -1 -93.5 -54.5t-35.5 -135.5q0 -91 38 -140.5
t100 -49.5q71 0 145 46q1 13 1 39z" />
    <glyph glyph-name="colon" unicode=":" horiz-adv-x="250" 
d="M63 382q0 19 22 37.5t45 18.5q25 0 42 -21.5t17 -43.5q0 -20 -21.5 -38t-46.5 -18q-23 0 -40.5 21.5t-17.5 43.5zM63 50q0 19 22 37.5t45 18.5q25 0 42 -21.5t17 -43.5q0 -20 -21.5 -38t-46.5 -18q-23 0 -40.5 21.5t-17.5 43.5z" />
    <glyph glyph-name="semicolon" unicode=";" horiz-adv-x="272" 
d="M66 50q0 25 19 40.5t48 15.5q37 0 58 -33t21 -74q0 -53 -24 -97.5t-63 -66.5q-17 6 -26 28q25 16 42.5 46t17.5 58q0 18 -35 18q-24 0 -41 18.5t-17 46.5zM67 382q0 19 22 37.5t45 18.5q25 0 42 -21.5t17 -43.5q0 -20 -21.5 -38t-46.5 -18q-23 0 -40.5 21.5t-17.5 43.5z
" />
    <glyph glyph-name="less" unicode="&#x3c;" horiz-adv-x="541" 
d="M483 559v-62l-358 -199l358 -199v-62l-445 236v50z" />
    <glyph glyph-name="equal" unicode="=" horiz-adv-x="542" 
d="M460 351h-390q-1 12 2.5 35t8.5 29h390q-2 -47 -11 -64zM460 197h-390q-1 12 2.5 35t8.5 29h390q-2 -47 -11 -64z" />
    <glyph glyph-name="greater" unicode="&#x3e;" horiz-adv-x="541" 
d="M503 323v-50l-445 -236v62l358 199l-358 199v62z" />
    <glyph glyph-name="question" unicode="?" horiz-adv-x="432" 
d="M125 50q0 19 22 37.5t45 18.5q25 0 42 -21.5t17 -43.5q0 -20 -21.5 -38t-46.5 -18q-23 0 -40.5 21.5t-17.5 43.5zM194 167q-17 0 -29 6q-35 58 -35 102q0 34 17 66t41 59t49 55t41 58.5t16 62.5q0 45 -24 69.5t-65 24.5q-51 0 -83 -24q-7 -71 -22 -117q-15 -7 -34 -1
q-13 54 -14.5 80t1.5 55q80 42 170 42q71 0 119.5 -35t48.5 -93q0 -44 -19.5 -78t-48.5 -59.5t-60.5 -53t-51 -61t-19.5 -76.5q0 -25 15 -75q-2 -7 -13 -7z" />
    <glyph glyph-name="at" unicode="@" horiz-adv-x="830" 
d="M613 -91l18 -37q-90 -59 -214 -59q-161 1 -263 101.5t-103 259.5q2 173 117 293t279 122q151 -1 242.5 -94.5t91.5 -239.5q-1 -131 -62 -213t-134 -82q-39 0 -68 28.5t-38 83.5h-4q-63 -90 -134 -90q-49 0 -81.5 42t-32.5 107q0 49 13 99.5t38.5 95t67.5 72.5t94 28
q54 0 86 -46h3l13 41h38v-28l-37 -228q-5 -27 -5 -58q0 -44 14.5 -66t37.5 -22q42 0 81 65t40 179q0 129 -70.5 201.5t-198.5 73.5q-134 -1 -219.5 -101.5t-87.5 -250.5q0 -146 78.5 -232t221.5 -86q106 0 178 41zM449 378q-35 0 -67 -41t-50.5 -97.5t-18.5 -105.5
q2 -82 53 -82q17 0 35 11t36.5 38t33.5 79.5t22 125.5q7 72 -44 72z" />
    <glyph glyph-name="A" unicode="A" 
d="M436 240h-232l-65 -190l77 -20q3 -19 -5 -35q-90 5 -122 5q-17 0 -33 -1t-31 -2t-28 -2q-3 19 2 35q45 6 77 20l237 669q15 8 39 8l271 -677l77 -20q3 -19 -5 -35q-90 5 -122 5q-52 0 -145 -5q-3 19 2 35q47 6 80 20zM315 580h-2q-31 -111 -44 -148l-47 -137h192l-55 142
q-32 74 -44 143z" />
    <glyph glyph-name="B" unicode="B" horiz-adv-x="636" 
d="M326 -5l-153 5q-44 0 -137 -5q-3 19 2 35q42 6 80 20v600l-77 20q-3 19 5 35q90 -5 122 -5l134 1q247 2 249 -161q0 -65 -44.5 -109.5t-110.5 -55.5v-2q198 -22 198 -183q0 -54 -22 -93.5t-61 -61t-84.5 -31t-100.5 -9.5zM223 45l91 -5q92 0 131 39.5t37 111.5
q0 82 -42.5 116.5t-145.5 34.5h-71v-297zM223 392h58q88 0 125.5 35.5t37.5 108.5q0 63 -39.5 90.5t-131.5 27.5q-14 0 -50 -2v-260z" />
    <glyph glyph-name="C" unicode="C" horiz-adv-x="646" 
d="M592 109q21 -6 23 -33q-98 -96 -228 -96q-68 0 -129.5 22.5t-109 66.5t-76 116.5t-28.5 164.5q0 91 31.5 163.5t84 117.5t113 67t124.5 22q140 0 222 -45q4 -71 -31 -164q-25 -4 -44 5l-11 129q-54 23 -129 22q-104 0 -174 -91.5t-70 -225.5q0 -145 61.5 -231t176.5 -86
q104 0 194 76z" />
    <glyph glyph-name="D" unicode="D" horiz-adv-x="739" 
d="M298 -7l-125 7q-44 0 -137 -5q-3 19 2 35q45 6 80 20v600l-77 20q-3 19 5 35q90 -5 122 -5l130 4q197 0 296 -91t99 -253q0 -99 -32.5 -171.5t-89 -115t-125 -61.5t-148.5 -19zM223 45q34 -3 66 -3q159 0 226 75.5t67 242.5q0 151 -71.5 224t-236.5 73q-15 0 -51 -2v-610
z" />
    <glyph glyph-name="E" unicode="E" horiz-adv-x="625" 
d="M409 330h-186v-285h290l21 133q20 4 35 -3q14 -59 12 -175h-408q-40 0 -133 -5q-3 19 2 35q52 10 76 20v600l-77 20q-3 19 5 35q90 -5 122 -5h385q2 -102 -11 -175q-15 -6 -36 -3l-26 133h-257v-270h186l19 88q23 7 40 -5q-4 -39 -4 -107q0 -75 4 -118q-18 -7 -40 -2z
" />
    <glyph glyph-name="F" unicode="F" horiz-adv-x="561" 
d="M223 340v-291l95 -19q3 -19 -5 -35q-90 5 -145 5q-27 0 -120 -5q-3 19 2 35q51 9 68 20v600l-77 20q-3 19 5 35q90 -5 122 -5h375q1 -13 0.5 -56t-11.5 -119q-15 -6 -36 -3l-25 133h-248v-260h157l19 88q23 7 40 -5q-4 -39 -4 -107q0 -75 4 -118q-18 -7 -40 -2l-19 89
h-157z" />
    <glyph glyph-name="G" unicode="G" horiz-adv-x="716" 
d="M620 250v-201q-119 -69 -242 -69q-145 0 -239.5 98t-94.5 272q0 170 105.5 270t274.5 100q117 0 206 -43q0 -75 -31 -175q-4 -1 -13 -1q-18 0 -31 6l-11 136q-66 25 -127 25q-113 0 -184.5 -88.5t-72.5 -229.5q0 -145 62.5 -231t174.5 -86q58 -1 118 25v192l-77 20
q-1 4 -1 11q0 12 6 24q90 -5 126 -5q33 0 123 5q6 -12 6 -24q0 -2 -0.5 -5t-0.5 -6q-48 -5 -77 -20z" />
    <glyph glyph-name="H" unicode="H" horiz-adv-x="779" 
d="M663 650v-600l77 -20q3 -19 -5 -35q-90 5 -122 5q-44 0 -137 -5q-3 19 2 35q45 6 80 20v290h-335v-290l77 -20q3 -19 -5 -35q-90 5 -122 5q-44 0 -137 -5q-3 19 2 35q54 9 80 20v600l-77 20q-3 19 5 35q90 -5 122 -5q45 0 137 5q4 -19 -2 -35q-52 -9 -80 -20v-255h335
v255l-77 20q-3 19 5 35q90 -5 122 -5q45 0 137 5q4 -19 -2 -35q-52 -9 -80 -20z" />
    <glyph glyph-name="I" unicode="I" horiz-adv-x="339" 
d="M223 650v-600l77 -20q3 -19 -5 -35q-90 5 -122 5q-44 0 -137 -5q-3 21 2 35q55 7 80 20v600l-77 20q-3 19 5 35q90 -5 122 -5q45 0 137 5q3 -20 -2 -35q-52 -9 -80 -20z" />
    <glyph glyph-name="J" unicode="J" horiz-adv-x="324" 
d="M111 139v511l-77 20q-3 19 5 35q90 -5 122 -5q45 0 137 5q3 -19 -2 -35q-52 -7 -80 -20v-511q0 -87 -50.5 -146t-154.5 -99q-7 1 -13.5 9.5t-6.5 15.5q120 62 120 220z" />
    <glyph glyph-name="K" unicode="K" horiz-adv-x="666" 
d="M543 628l-202 -239l241 -327q9 -12 40.5 -21t55.5 -11q3 -19 -5 -35q-90 5 -122 5q-60 0 -152 -5q-3 20 2 35q52 5 80 20l-192 260h-66v-260l77 -20q3 -19 -5 -35q-90 5 -122 5q-44 0 -137 -5q-3 21 2 35q43 6 80 20v600l-77 20q-3 19 5 35q90 -5 122 -5q45 0 137 5
q3 -19 -2 -35q-47 -5 -80 -20v-285h38l232 285q-23 14 -77 20q-3 19 5 35q90 -5 124 -5t104 5q3 -19 -2 -35q-73 -9 -104 -42z" />
    <glyph glyph-name="L" unicode="L" horiz-adv-x="548" 
d="M223 55h240l27 123q21 4 36 -3q10 -73 10 -175h-363q-40 0 -133 -5q-3 19 2 35q58 11 76 20v600l-77 20q-3 19 5 35q90 -5 122 -5q45 0 137 5q3 -19 -2 -35q-53 -5 -80 -20v-595z" />
    <glyph glyph-name="M" unicode="M" horiz-adv-x="918" 
d="M495 265l163 415v20h60q45 0 137 5q3 -19 -2 -35q-55 -9 -80 -20l50 -600l77 -20q3 -19 -5 -35q-90 5 -122 5q-44 0 -137 -5q-3 20 2 35q66 9 80 20l-42 438q-2 19 -2 56q0 31 1 46h-3q-16 -60 -32 -102l-181 -457q-20 -11 -36 -10l-197 467q-13 31 -33 102h-3l-3 -103
l-25 -438l77 -20q3 -19 -5 -35q-12 1 -33 2.5t-38.5 2.5t-33.5 1q-34 0 -107 -5q-3 19 2 35q44 6 78 20l40 600l-77 20q-3 19 5 35q90 -5 122 -5h65v-20l163 -415q18 -42 36 -118h2q18 69 37 118z" />
    <glyph glyph-name="N" unicode="N" horiz-adv-x="757" 
d="M591 650l-77 20q-3 19 5 35q65 -5 100 -5q38 0 110 5q3 -19 -2 -35q-52 -9 -80 -20v-670q-11 -7 -20 -10l-398 505q-20 24 -59 95h-3q5 -31 5 -98v-422l77 -21q3 -19 -5 -35q-12 1 -33 2.5t-38.5 2.5t-33.5 1q-10 0 -102 -5q-3 19 2 35q38 6 78 20v600l-77 20q-3 19 5 35
q90 -5 122 -5h40l25 -52l309 -397q24 -31 54 -98h3l-3 36t-2 27t-1 33z" />
    <glyph glyph-name="O" unicode="O" horiz-adv-x="753" 
d="M44 351q0 166 93 267.5t238 101.5q148 0 241 -102.5t93 -266.5q0 -167 -92 -269t-242 -102q-151 0 -241 102t-90 269zM594 358q0 81 -24.5 151.5t-76.5 117.5t-121 47q-56 0 -98 -27.5t-66.5 -75t-36.5 -105t-12 -124.5q0 -135 61.5 -225.5t165.5 -90.5q102 0 155 94.5
t53 237.5z" />
    <glyph glyph-name="P" unicode="P" horiz-adv-x="590" 
d="M277 279q-19 0 -54 3v-232l97 -20q3 -19 -5 -35q-90 5 -142 5q-44 0 -137 -5q-3 19 2 35q55 7 80 20v600l-77 20q-3 19 5 35q90 -5 122 -5q33 0 77 4.5t58 4.5q124 0 194.5 -55t70.5 -152q0 -59 -25 -103t-67.5 -70t-92.5 -38t-106 -12zM296 664q-35 0 -73 -9v-324
q32 -6 62 -6q81 0 128.5 43.5t47.5 127.5q0 76 -47 122t-118 46z" />
    <glyph glyph-name="Q" unicode="Q" horiz-adv-x="753" 
d="M44 351q1 169 93.5 269t237.5 100q149 0 241.5 -103.5t92.5 -265.5q0 -152 -77 -251t-207 -116q138 -112 296 -112q47 0 83 17q2 -1 7.5 -9.5t4.5 -12.5q-87 -75 -153 -75q-125 0 -318 189q-141 12 -220.5 112t-80.5 258zM594 358q0 78 -25.5 151.5t-76.5 119t-120 45.5
q-56 0 -98 -28t-66.5 -74.5t-36.5 -104.5t-12 -125q0 -135 61.5 -225.5t165.5 -90.5q100 0 154 92.5t54 239.5z" />
    <glyph glyph-name="R" unicode="R" horiz-adv-x="652" 
d="M223 315v-265l77 -20q3 -19 -5 -35q-90 5 -122 5q-44 0 -137 -5q-3 19 2 35q44 5 80 20v600l-77 20q-3 19 5 35q84 -6 142 -5l94 6q126 7 203 -44.5t77 -149.5q0 -130 -137 -176v-4q11 -7 22 -32q83 -187 100 -214q25 -45 55 -52q12 -3 28 -3l12 1q8 -12 6 -32
q-12 -14 -66 -15q-66 0 -109 52q-17 20 -33 54.5t-42.5 98.5t-57.5 126q-33 -3 -67 -3q-18 0 -50 2zM464 506q0 73 -47.5 113.5t-120.5 40.5q-32 0 -73 -11v-288q29 -7 60 -7q86 0 133.5 40.5t47.5 111.5z" />
    <glyph glyph-name="S" unicode="S" horiz-adv-x="545" 
d="M258 -19q-135 0 -209 35q0 89 26 174q2 0 6 0.5t7 0.5q18 0 31 -6l16 -133q63 -15 108 -15q35 0 72 8t64.5 33t27.5 68q0 39 -11.5 63t-53 52.5t-129.5 66.5q-90 40 -126.5 85.5t-34.5 122.5q1 88 74 134t183 46q93 0 170 -30q3 -76 -31 -169q-4 -1 -13 -1q-17 0 -31 6
l-11 133q-45 13 -90 13q-66 0 -110.5 -28.5t-45.5 -86.5q-1 -46 26.5 -75t116.5 -69q65 -29 101 -48.5t65.5 -46t42.5 -60.5t13 -80q-2 -93 -77 -143t-177 -50z" />
    <glyph glyph-name="T" unicode="T" horiz-adv-x="623" 
d="M257 50v605h-156l-29 -143q-24 -4 -40 3q-13 115 -10 185h585q3 -80 -11 -185q-16 -7 -40 -3l-29 143h-165v-605l83 -20q3 -19 -5 -35q-90 5 -128 5q-45 0 -137 -5q-3 20 2 35q39 5 80 20z" />
    <glyph glyph-name="U" unicode="U" horiz-adv-x="745" 
d="M642 650v-375q0 -89 -15.5 -144t-45.5 -88t-78 -48t-120 -15t-123 12.5t-86.5 44t-53.5 87t-18 141.5v385l-77 20q-3 19 5 35q90 -5 122 -5q45 0 137 5q3 -19 -2 -35q-52 -7 -80 -20v-415q-1 -206 201 -205q38 0 66.5 9t49 26.5t31 37.5t17 40.5t10.5 53t4.5 53.5t0.5 55
v345l-77 20q-3 19 5 35q70 -5 102 -5q34 0 107 5q3 -20 -2 -35q-57 -8 -80 -20z" />
    <glyph glyph-name="V" unicode="V" horiz-adv-x="673" 
d="M606 650l-240 -670q-17 -10 -36 -10l-267 680l-77 20q-3 19 5 35q90 -5 137 -5q45 0 137 5q3 -19 -2 -35q-45 -6 -80 -20l145 -388q32 -87 42 -145h2q21 71 46 150l133 383l-77 20q-3 19 5 35q70 -5 103 -5q35 0 108 5q3 -19 -2 -35q-57 -8 -82 -20z" />
    <glyph glyph-name="W" unicode="W" horiz-adv-x="992" 
d="M364 254l97 310l-31 86l-77 20q-3 19 5 35q90 -5 137 -5q44 0 137 5q3 -19 -2 -35q-6 -1 -19.5 -3t-21.5 -3.5t-19.5 -5t-20.5 -8.5l124 -388q35 -109 43 -156h2q11 62 37 156l102 388l-87 20q-3 19 5 35q80 -5 113 -5q35 0 107 5q3 -19 -2 -35q-56 -10 -82 -20
l-185 -670q-17 -8 -51 -10l-186 517l-163 -507q-15 -8 -47 -10l-221 680l-77 20q-3 19 5 35q90 -5 137 -5q44 0 137 5q3 -20 -2 -35q-47 -5 -84 -20l105 -393q34 -123 40 -162h2q10 64 43 159z" />
    <glyph glyph-name="X" unicode="X" horiz-adv-x="671" 
d="M576 650l-193 -269l203 -323q22 -20 93 -28q0 -2 0.5 -5t0.5 -5q0 -13 -6 -25q-45 2 -78 3.5t-55 1.5q-30 0 -68 -1.5t-84 -3.5q-1 3 -1 6.5v6.5q0 11 3 22q27 5 47 10t34 10l-159 249l-175 -249l77 -20q0 -2 0.5 -5t0.5 -5q0 -13 -6 -25q-40 2 -69 3.5t-46 1.5
q-20 0 -45.5 -1.5t-56.5 -3.5q-1 3 -1 6.5v6.5q0 11 3 22q28 4 47.5 8.5t32.5 11.5l211 293l-195 307l-77 20q-1 3 -1 10q0 13 6 25q45 -2 79.5 -3.5t57.5 -1.5t58 1.5t82 3.5q1 -5 1 -13q0 -12 -3 -22q-30 -5 -50 -10t-31 -10l142 -228l164 228l-77 20q-1 3 -1 10
q0 13 6 25q35 -2 61.5 -3.5t44.5 -1.5q17 0 43.5 1.5t63.5 3.5q1 -5 1 -13q0 -12 -3 -22q-22 -2 -42.5 -7t-39.5 -13z" />
    <glyph glyph-name="Y" unicode="Y" horiz-adv-x="655" 
d="M385 321v-271l87 -20q3 -19 -5 -35q-90 5 -132 5q-44 0 -137 -5q-4 19 2 35q56 7 80 20v251l-215 349l-77 20q-3 19 5 35q90 -5 131 -5q47 0 140 5q3 -19 -2 -35q-57 -7 -81 -20l165 -284h4l166 284l-77 20q-3 19 5 35q70 -5 113 -5q34 0 107 5q3 -19 -2 -35
q-62 -8 -85 -20z" />
    <glyph glyph-name="Z" unicode="Z" horiz-adv-x="595" 
d="M553 0h-518q-4 27 0 45l397 610h-301l-29 -143q-24 -4 -40 3q-10 124 -10 185h496q4 -22 0 -40l-393 -615h319l29 143q24 4 40 -3q10 -52 10 -156v-29z" />
    <glyph glyph-name="bracketleft" unicode="[" horiz-adv-x="290" 
d="M83 739h187q9 -20 0 -44h-104v-788h104q7 -24 0 -43h-187v875z" />
    <glyph glyph-name="backslash" unicode="\" horiz-adv-x="461" 
d="M436 -100q-34 -4 -68 8l-338 799q23 3 67 -7l339 -800v0z" />
    <glyph glyph-name="bracketright" unicode="]" horiz-adv-x="297" 
d="M213 -136h-187q-7 19 0 43h104v788h-104q-9 24 0 44h187v-875z" />
    <glyph glyph-name="asciicircum" unicode="^" horiz-adv-x="481" 
d="M11 520l229 228h6l229 -228q-8 -10 -27.5 -24t-27.5 -14l-176 174h-2l-176 -174q-8 0 -28 14t-27 24z" />
    <glyph glyph-name="underscore" unicode="_" horiz-adv-x="654" 
d="M579 -124h-518q-1 13 2.5 35.5t8.5 28.5h518q-2 -47 -11 -64z" />
    <glyph glyph-name="grave" unicode="`" horiz-adv-x="187" 
d="M84 757l80 -174q-13 -13 -36 -17q-45 42 -124 151q27 31 80 40z" />
    <glyph glyph-name="a" unicode="a" horiz-adv-x="496" 
d="M130 120q0 -40 21.5 -61t58.5 -21q28 0 59.5 17t47.5 40v135q-103 0 -145 -24.5t-42 -85.5zM415 317v-268q15 -8 70 -20q3 -19 -5 -35q-37 -7 -84 -7q-33 0 -57 6l-14 52h-4q-60 -62 -149 -62q-64 0 -103 33.5t-39 93.5q1 165 287 160l1 88q1 116 -88 117q-53 0 -94 -15
l-13 -106q-20 -7 -44 -4q-21 76 -20 130q83 40 198 40q86 1 122 -44t36 -159z" />
    <glyph glyph-name="b" unicode="b" horiz-adv-x="572" 
d="M168 745v-290l5 -5q68 60 150 60q98 -1 154 -71.5t56 -189.5q0 -128 -74 -198.5t-196 -70.5q-101 2 -190 38v668l-83 8q-3 20 5 35q67 10 133 27q19 -1 40 -11zM173 392v-349q44 -23 100 -23q71 0 112 60.5t41 168.5q0 98 -37 150t-96 52q-34 0 -69.5 -19t-50.5 -40z" />
    <glyph glyph-name="c" unicode="c" horiz-adv-x="484" 
d="M390 354l-13 106q-31 14 -75 14q-39 0 -68.5 -16t-49.5 -45.5t-30 -70.5t-10 -92q0 -105 41.5 -159t110.5 -54q65 0 138 47q13 -7 18 -26q-74 -75 -173 -75q-48 0 -92 18.5t-77 53.5t-52.5 84t-20.5 111q0 63 20.5 113t55.5 84.5t83 52.5t103 18q82 0 155 -32
q0 -73 -20 -136q-4 -1 -16 -1q-16 0 -28 5z" />
    <glyph glyph-name="d" unicode="d" horiz-adv-x="586" 
d="M285 38q64 0 114 53v348q-38 32 -99 32q-76 0 -115 -58t-39 -163t35 -158.5t104 -53.5zM499 745v-697q17 -15 70 -20q0 -2 0.5 -5t0.5 -5q0 -13 -6 -25q-35 -7 -84 -7q-33 0 -57 6q-7 11 -12 24t-7 29h-5q-38 -35 -76.5 -50t-78.5 -15q-43 0 -80.5 20t-65 55.5t-43 83
t-15.5 102.5q0 65 17.5 116.5t50.5 87.5t79.5 55t104.5 19q57 0 107 -25h3v192l-83 8q-1 3 -1 10q0 13 6 25q72 10 135 27q21 -2 40 -11z" />
    <glyph glyph-name="e" unicode="e" horiz-adv-x="495" 
d="M143 270v-20q0 -100 40.5 -156t110.5 -56q45 0 72 8.5t68 36.5q16 -7 18 -24q-69 -75 -161 -76q-115 0 -184 72t-70 195q1 126 72.5 196.5t176.5 70.5q85 0 129.5 -57.5t44.5 -155.5q0 -17 -1 -26l-14 -11zM285 474q-47 0 -86.5 -42.5t-51.5 -120.5l218 12
q0 80 -17.5 115.5t-62.5 35.5z" />
    <glyph glyph-name="f" unicode="f" horiz-adv-x="352" 
d="M327 620l-11 88q-19 8 -39 8q-78 -2 -78 -156v-85h140q-1 -33 -10 -50h-130v-375l97 -20q3 -19 -5 -35q-90 5 -142 5q-30 0 -122 -5q-3 19 2 35q48 10 70 20v375h-65q-1 10 2 26.5t8 23.5h55v60q0 101 46.5 160.5t123.5 59.5q70 2 118 -30q-7 -61 -19 -109q-22 -3 -41 4z
" />
    <glyph glyph-name="g" unicode="g" horiz-adv-x="522" 
d="M373 335q0 61 -32.5 96.5t-84.5 35.5t-84.5 -35.5t-32.5 -96.5q0 -57 33 -93.5t84 -36.5t84 36.5t33 93.5zM256 167q-40 0 -76 11q-18 -26 -18 -39q0 -11 7 -19t37.5 -16.5t97.5 -16.5q108 -11 155.5 -40.5t47.5 -101.5q0 -58 -39 -97.5t-96 -56.5t-116 -17
q-108 0 -162 37.5t-54 94.5q0 90 94 129q-33 29 -33 66q0 52 41 91q-94 46 -94 141q1 87 63.5 130t144.5 42q56 0 100 -18l133 82q11 -7 21 -33t7 -40q-66 -22 -127 -26q74 -45 74 -137q0 -56 -34.5 -95t-81.5 -55t-92 -16zM271 7q-8 1 -27 3.5t-38.5 5.5t-35.5 7
q-26 -22 -37.5 -44.5t-11.5 -58.5q0 -45 38 -76.5t102 -31.5q69 0 112.5 33t43.5 74q0 38 -38.5 58.5t-107.5 29.5z" />
    <glyph glyph-name="h" unicode="h" horiz-adv-x="598" 
d="M185 745v-300h5q84 75 164 75q79 0 118 -41.5t39 -114.5v-314l72 -20q3 -19 -5 -35q-90 5 -117 5q-30 0 -122 -5q-3 19 2 35q50 10 70 20v299q0 57 -25.5 79.5t-71.5 21.5q-32 0 -66.5 -16t-57.5 -42v-342l67 -20q3 -19 -5 -35q-90 5 -112 5q-29 0 -122 -5q-3 19 2 35
q56 13 70 20v636l-83 8q-3 20 5 35q72 11 135 27q17 -1 38 -11z" />
    <glyph glyph-name="i" unicode="i" horiz-adv-x="290" 
d="M67 669q0 19 23 39t48 20t43 -22.5t18 -45.5q0 -20 -22.5 -39.5t-48.5 -19.5q-23 0 -42 22.5t-19 45.5zM205 499v-449l67 -20q3 -19 -5 -35q-90 5 -112 5q-30 0 -122 -5q-3 19 2 35q56 13 70 20v390l-83 8q-3 20 5 35q83 12 140 27q17 -1 38 -11z" />
    <glyph glyph-name="j" unicode="j" horiz-adv-x="261" 
d="M51 669q0 19 23 39t48 20t43 -22.5t18 -45.5q0 -20 -22.5 -39.5t-48.5 -19.5q-23 0 -42 22.5t-19 45.5zM189 34q0 -94 -50 -161.5t-145 -118.5q-19 15 -19 43q70 41 92.5 93t21.5 140v410l-83 8q-3 20 5 35q83 12 140 27q17 -1 38 -11v-465z" />
    <glyph glyph-name="k" unicode="k" horiz-adv-x="542" 
d="M187 745v-468h26l160 178l-73 15q-1 4 -1 11q0 12 6 24q70 -5 102 -5q31 0 94 5q1 -5 1 -15t-3 -20q-47 -5 -75 -25l-136 -146l185 -249q20 -16 67 -20q0 -2 0.5 -5.5t0.5 -5.5q0 -12 -6 -24q-78 4 -119 4q-48 0 -91 -4q-1 5 -1 14q0 11 3 21l49 3l-143 204h-46v-187
l67 -20q0 -2 0.5 -5.5t0.5 -5.5q0 -12 -6 -24q-90 5 -112 5q-29 0 -122 -5q-1 5 -1 14q0 11 3 21q56 13 70 20v636l-83 8q-1 4 -1 11q0 12 6 24q83 12 140 27q17 -1 38 -11z" />
    <glyph glyph-name="l" unicode="l" horiz-adv-x="279" 
d="M190 745v-695l77 -20q3 -19 -5 -35q-90 5 -122 5q-29 0 -122 -5q-3 19 2 35q56 14 70 20v636l-83 8q-3 20 5 35q83 12 140 27q17 -1 38 -11z" />
    <glyph glyph-name="m" unicode="m" horiz-adv-x="891" 
d="M196 501l-3 -68l1 -1q80 82 178 84q101 -1 131 -84q75 85 169 84q66 0 103 -37.5t37 -107.5l1 -321l70 -20q3 -19 -5 -35q-90 5 -115 5q-26 0 -118 -5q-3 19 2 35q31 6 66 20v276q0 66 -20.5 92t-67.5 26q-57 -1 -113 -65l1 -329l70 -20q3 -19 -5 -35q-83 5 -115 5
q-31 0 -118 -5q-3 19 2 35q31 6 66 20v276q0 66 -20.5 93t-67.5 27q-55 -1 -124 -60v-336l67 -20q3 -19 -5 -35q-80 5 -112 5q-36 0 -122 -5q-3 19 2 35q48 12 70 20v390l-83 8q-3 20 5 35q77 13 139 27q17 -1 34 -9z" />
    <glyph glyph-name="n" unicode="n" horiz-adv-x="603" 
d="M196 501l-3 -68l1 -1q84 82 188 84q66 0 103 -37.5t37 -107.5l1 -321l70 -20q3 -19 -5 -35q-80 5 -115 5q-36 0 -118 -5q-3 19 2 35q31 6 66 20v276q0 66 -20.5 93t-67.5 27q-81 0 -134 -60v-336l67 -20q3 -19 -5 -35q-80 5 -112 5q-30 0 -122 -5q-3 19 2 35q48 12 70 20
v390l-83 8q-3 20 5 35q77 13 139 27q17 -1 34 -9z" />
    <glyph glyph-name="o" unicode="o" horiz-adv-x="576" 
d="M36 250q0 125 73 198t179 72q116 0 184 -77t68 -193q0 -127 -72 -199t-180 -71q-119 0 -185.5 77t-66.5 193zM432 236q2 95 -34 168t-112 73q-74 0 -108.5 -64.5t-33.5 -169.5q0 -46 8.5 -86t26.5 -70t45.5 -47t65.5 -17q62 -1 102 50t40 163z" />
    <glyph glyph-name="p" unicode="p" horiz-adv-x="587" 
d="M186 502l-1 -40l5 -5q71 63 150 63q95 -1 151 -75t57 -182q0 -137 -67.5 -209.5t-188.5 -72.5q-48 1 -102 22v-203l87 -20q3 -19 -5 -35q-90 5 -132 5q-39 0 -122 -5q-3 19 2 35q48 10 70 20v640l-82 8q-3 20 5 35q43 5 138 27q16 -1 35 -8zM190 404v-345q47 -32 100 -32
q74 0 113 60t39 170q0 101 -35 152t-97 51q-35 0 -70 -17.5t-50 -38.5z" />
    <glyph glyph-name="q" unicode="q" horiz-adv-x="566" 
d="M499 465v-665l67 -20q3 -19 -5 -35q-80 5 -112 5q-39 0 -132 -5q-3 19 2 35q58 9 80 20v237q-63 -57 -150 -57q-73 1 -120 39.5t-68 98.5t-21 122q0 132 70.5 206t198.5 74q99 0 190 -55zM399 95v343q-41 34 -100 33q-76 0 -114 -60t-38 -171q0 -38 5.5 -70t19.5 -62.5
t41 -49t66 -18.5q35 0 70 17t50 38z" />
    <glyph glyph-name="r" unicode="r" horiz-adv-x="431" 
d="M201 337v-287l97 -20q3 -19 -5 -35q-90 5 -142 5q-40 0 -122 -5q-3 19 2 35q56 12 70 20v390l-83 8q-3 20 5 35q83 12 140 27q11 0 33 -11v-91l1 -1q74 110 152 110q40 1 66 -15q3 -74 -20 -150q-25 -3 -45 4l-14 100q-83 0 -135 -119z" />
    <glyph glyph-name="s" unicode="s" horiz-adv-x="432" 
d="M100 150l10 -106q33 -18 91 -18q44 0 74.5 19t30.5 57q0 34 -30 59.5t-103 59.5q-63 29 -92.5 66t-29.5 95q0 68 49 102t128 34q77 0 146 -28q0 -4 0.5 -11t0.5 -11q0 -59 -19 -115q-10 -2 -15 -2q-15 0 -30 6l-16 108q-31 9 -64 9q-41 0 -68.5 -17t-28.5 -55
q0 -34 25 -58t94 -57q81 -39 113 -74t32 -88q0 -68 -52.5 -106.5t-137.5 -38.5q-105 -2 -169 40v17q-1 63 18 117q6 1 10 1q18 0 33 -5z" />
    <glyph glyph-name="t" unicode="t" horiz-adv-x="323" 
d="M205 -16q-56 0 -84.5 32t-28.5 103v319h-70q-10 19 -5 45q56 -1 78.5 22.5t41.5 99.5h53v-112h105q14 -29 0 -55h-105v-294q0 -67 10.5 -89t39.5 -21q25 0 60 20q14 -9 15 -30q-13 -15 -42.5 -27.5t-67.5 -12.5z" />
    <glyph glyph-name="u" unicode="u" horiz-adv-x="590" 
d="M504 48q14 -10 70 -20q3 -18 -5 -35q-37 -7 -82 -7q-32 0 -56 6l-17 74h-5q-50 -45 -93.5 -63.5t-95.5 -18.5q-135 0 -135 150v306l-73 8q-3 20 5 35q61 9 130 27q17 -1 38 -11v-350q0 -56 23 -76t71 -19q31 0 66 18.5t59 45.5v322l-73 8q-3 20 5 35q61 9 130 27
q17 -1 38 -11v-451z" />
    <glyph glyph-name="v" unicode="v" horiz-adv-x="565" 
d="M270 -30l-198 480l-77 20q-3 19 5 35q80 -5 122 -5q37 0 129 5q3 -19 -2 -35q-50 -9 -69 -20l86 -220q30 -77 42 -136h3q20 78 33 113l95 243l-79 20q-3 19 5 35q70 -5 103 -5q36 0 104 5q3 -19 -2 -35q-53 -9 -71 -20l-184 -467q-21 -11 -45 -13z" />
    <glyph glyph-name="w" unicode="w" horiz-adv-x="832" 
d="M555 -28l-126 361l-124 -347q-22 -11 -47 -13l-184 477l-77 20q-3 19 5 35q90 -5 122 -5q33 0 126 5q3 -19 -2 -35q-55 -12 -69 -20l74 -209q25 -71 42 -142h3q22 86 41 138l64 171l-14 42l-77 20q-3 19 5 35q77 -5 119 -5q43 0 115 5q3 -19 -2 -35q-55 -11 -69 -20
l67 -218q34 -109 42 -143h3q11 50 39 135l71 226l-77 20q-3 19 5 35q65 -5 100 -5q33 0 106 5q3 -19 -2 -35q-53 -9 -71 -20l-160 -464q-23 -12 -48 -14z" />
    <glyph glyph-name="x" unicode="x" horiz-adv-x="550" 
d="M473 450l-151 -185l149 -215q11 -6 21.5 -9t23 -6t22.5 -5q3 -19 -5 -35q-80 5 -112 5q-30 0 -122 -5q-3 19 2 35l60 17l-99 143l-112 -140l67 -20q3 -19 -5 -35q-70 5 -98 5q-34 0 -102 -5q-3 19 2 35q53 7 72 20l147 183l-148 217l-77 20q-3 19 5 35q90 -5 122 -5
q36 0 129 5q3 -19 -2 -35q-44 -7 -67 -20l98 -142l114 142l-79 20q-3 19 5 35q70 -5 109 -5q33 0 105 5q3 -19 -2 -35q-50 -9 -72 -20z" />
    <glyph glyph-name="y" unicode="y" horiz-adv-x="573" 
d="M112 -269q-50 74 -57 128q19 13 38 14l64 -75q56 55 109 198l-182 454l-77 20q-3 19 5 35q90 -5 118 -5q31 0 124 5q3 -19 -2 -35q-57 -12 -69 -20l83 -201q42 -101 51 -155h3q1 4 7 29.5t13 49.5t19 54l85 223l-69 20q-3 19 5 35q67 -5 98 -5q35 0 97 5q3 -19 -2 -35
q-58 -12 -69 -20l-196 -497q-41 -104 -93 -163.5t-103 -58.5z" />
    <glyph glyph-name="z" unicode="z" horiz-adv-x="469" 
d="M137 45h214l28 114q20 7 45 4q7 -40 7 -102q0 -41 -1 -61h-394q-7 12 -10 34l275 421h-185l-18 -104q-20 -7 -45 -4q-13 78 -16 153h375q11 -16 14 -37z" />
    <glyph glyph-name="braceleft" unicode="{" horiz-adv-x="309" 
d="M105 305q64 -13 85.5 -51t19.5 -124v-87q-1 -81 12.5 -109t58.5 -28q10 -22 0 -40q-94 -2 -125 36.5t-29 153.5v87q1 78 -24.5 108.5t-96.5 29.5q-10 28 0 53q69 -1 95.5 28.5t25.5 109.5v89q-2 112 28.5 151t125.5 38q10 -20 0 -41q-44 0 -58 -26t-13 -111v-86
q2 -83 -19 -122.5t-86 -52.5v-6z" />
    <glyph glyph-name="bar" unicode="|" horiz-adv-x="224" 
d="M80 -230v1000q47 -2 64 -11v-1000q-15 -1 -36.5 2.5t-27.5 8.5z" />
    <glyph glyph-name="braceright" unicode="}" horiz-adv-x="309" 
d="M210 311q-65 13 -86 52.5t-19 122.5v86q1 85 -13 111t-58 26q-10 21 0 41q95 1 125.5 -38t28.5 -151v-89q-1 -80 25.5 -109.5t95.5 -28.5q10 -25 0 -53q-71 1 -96.5 -29.5t-24.5 -108.5v-87q2 -115 -29 -153.5t-125 -36.5q-10 18 0 40q45 0 58.5 28t12.5 109v87
q-2 86 19.5 124t85.5 51v6z" />
    <glyph glyph-name="asciitilde" unicode="~" horiz-adv-x="491" 
d="M349 542q-35 0 -67 17.5t-52 38t-43 38t-43 17.5q-43 0 -60 -66q-24 -4 -49 4q6 54 34 86.5t76 32.5q36 0 66.5 -16.5t50.5 -37t43 -37t47 -16.5q25 0 38 18t23 63q31 0 49 -10q-19 -132 -113 -132z" />
    <glyph glyph-name="nonbreakingspace" unicode="&#xa0;" horiz-adv-x="237" 
 />
    <glyph glyph-name="exclamdown" unicode="&#xa1;" horiz-adv-x="234" 
d="M64 -174l31 530q23 8 46 0l30 -530q-4 -7 -22 -12t-33 -5q-13 0 -30 5t-22 12zM51 476q0 22 17.5 43.5t40.5 21.5q25 0 46.5 -18t21.5 -38q0 -22 -17 -43.5t-42 -21.5q-23 0 -45 18.5t-22 37.5z" />
    <glyph glyph-name="cent" unicode="&#xa2;" horiz-adv-x="517" 
d="M260 -38l6 110q-92 10 -155 82t-63 184q0 113 61 182.5t159 82.5l-8 107q20 6 39 6q18 0 36 -6l-14 -104q73 -2 144 -32q0 -74 -20 -136q-6 -1 -16 -1q-17 0 -28 5l-13 106q-31 13 -75 14q-77 0 -117.5 -61t-40.5 -163q0 -107 42.5 -160t109.5 -53q66 0 138 47
q13 -8 18 -26q-60 -62 -142 -74l13 -108q-24 -7 -40 -7q-14 0 -34 5z" />
    <glyph glyph-name="sterling" unicode="&#xa3;" horiz-adv-x="568" 
d="M74 304q-1 15 1.5 27.5t8.5 22.5h40v121q1 112 64 173.5t160 61.5q75 0 149 -37q-3 -101 -19 -137q-3 -1 -12 -1q-20 0 -29 5l-11 108q-25 21 -79 21q-55 0 -86.5 -46t-31.5 -123v-146h160q-1 -33 -10 -50h-150v-249h210l27 123q6 1 15 1q10 0 21 -4q12 -63 12 -127
q0 -16 -2 -48h-333q-41 0 -133 -5q-1 5 -1 14q0 11 3 21q46 6 76 20v254h-50z" />
    <glyph glyph-name="currency" unicode="&#xa4;" horiz-adv-x="570" 
d="M284 542q62 0 112 -37l54 67q35 -18 53 -51l-67 -58q32 -48 32 -105q0 -61 -37 -111l71 -57q-18 -35 -51 -53l-62 70q-46 -32 -104 -32q-59 0 -107 35l-58 -72q-35 18 -53 51l71 62q-34 49 -34 107q0 59 33 106l-69 56q18 35 51 53l58 -67q47 36 107 36zM158 358
q0 -53 37.5 -90.5t89.5 -37.5q54 0 91 37.5t37 90.5q0 54 -37 91.5t-91 37.5q-53 0 -90 -37.5t-37 -91.5z" />
    <glyph glyph-name="yen" unicode="&#xa5;" horiz-adv-x="739" 
d="M203 336h98l-193 314l-77 20q-3 19 5 35q90 -5 131 -5q48 0 140 5q3 -19 -2 -35q-57 -8 -81 -20l165 -284h4l166 284l-77 20q-3 19 5 35q80 -5 113 -5q35 0 107 5q3 -19 -2 -35q-62 -9 -85 -20l-183 -314h121q-1 -33 -10 -50h-120v-60h130q-1 -33 -10 -50h-120v-126
l87 -20q3 -19 -5 -35q-90 5 -132 5q-45 0 -137 -5q-3 19 2 35q56 7 80 20v126h-130q-2 10 2 27.5t8 22.5h120v60h-130q-2 10 2 27.5t8 22.5z" />
    <glyph glyph-name="brokenbar" unicode="&#xa6;" horiz-adv-x="230" 
d="M83 -230v427q47 -2 64 -11v-427q-15 -1 -36.5 2.5t-27.5 8.5zM83 370v400q47 0 64 -11v-400q-47 2 -64 11z" />
    <glyph glyph-name="section" unicode="&#xa7;" horiz-adv-x="510" 
d="M131 51l14 -136q39 -15 82 -16q58 0 95 32t37 92q0 33 -30 58.5t-76.5 47t-94.5 48t-77.5 62.5t-29.5 86q1 97 82 148q-71 47 -71 118q1 89 58 136.5t148 47.5q99 0 161 -34q4 -91 -18 -157q-21 -4 -45 4l-11 133q-34 14 -71 14q-128 0 -128 -115q1 -34 30.5 -59
t74 -46.5t91 -48t75.5 -62.5t29 -84q-1 -97 -84 -147q84 -49 84 -127q0 -84 -59.5 -135.5t-151.5 -52.5q-94 0 -176 44q4 88 18 153q23 4 44 -4zM141 353q0 -17 6 -33.5t17 -28.5t21.5 -21.5t34.5 -23.5t33.5 -18.5t39 -18.5t36.5 -17q39 26 39 101q0 20 -9.5 39.5t-26 33.5
t-35.5 25.5t-34 19t-45.5 21.5t-43.5 20q-35 -38 -33 -99z" />
    <glyph glyph-name="dieresis" unicode="&#xa8;" horiz-adv-x="346" 
d="M11 652q0 18 21.5 37t43.5 19q24 0 41 -21t17 -42q0 -19 -21.5 -38t-43.5 -19q-24 0 -41 21.5t-17 42.5zM180 652q0 18 21.5 37t43.5 19q24 0 41 -21t17 -42q0 -19 -21.5 -38t-43.5 -19q-24 0 -41 21.5t-17 42.5z" />
    <glyph glyph-name="copyright" unicode="&#xa9;" horiz-adv-x="705" 
d="M353 615q131 0 215 -88.5t84 -220.5q-1 -130 -84 -217.5t-215 -88.5q-133 2 -216 89t-84 217q0 132 84.5 220t215.5 89zM354 577q-110 -1 -183 -77.5t-73 -192.5q1 -114 73 -191t183 -78q110 1 181 77.5t72 191.5q0 116 -72 193t-181 77zM436 373l-14 85q-28 12 -57 10
q-54 -1 -80.5 -47t-26.5 -120q0 -78 31 -118.5t76 -40.5q63 -2 107 34q11 -7 14 -20q-53 -56 -128 -55q-80 0 -129.5 53.5t-49.5 146.5q0 98 50.5 148.5t131.5 50.5q66 0 121 -26q3 -55 -15 -105q-18 -2 -31 4z" />
    <glyph glyph-name="ordfeminine" unicode="&#xaa;" horiz-adv-x="393" 
d="M113 478q0 -25 16 -39t39 -14q17 0 37 11.5t30 26.5v78q-67 0 -94.5 -13t-27.5 -50zM307 584v-156q18 -9 44 -12q3 -22 -3 -33q-18 -3 -51 -3q-28 0 -43 4l-11 38h-4q-42 -42 -95 -42t-76 26t-23 66q0 58 57 85t133 25q0 63 -12 82t-46 19q-28 0 -61 -10l-9 -58
q-11 -6 -32 -3q-9 19 -12 84q56 24 134 24q64 0 85.5 -29t24.5 -107z" />
    <glyph glyph-name="guillemotleft" unicode="&#xab;" horiz-adv-x="574" 
d="M284 70l-242 200q-6 22 0 40l242 200q25 -1 42 -27l-189 -191v-4l189 -191q-17 -26 -42 -27zM494 70l-242 200q-6 22 0 40l242 200q25 -1 42 -27l-189 -191v-4l189 -191q-17 -26 -42 -27z" />
    <glyph glyph-name="logicalnot" unicode="&#xac;" horiz-adv-x="624" 
d="M548 150q-15 -1 -38 2.5t-28 8.5v131h-413q-1 13 3 35.5t8 27.5h468v-205z" />
    <glyph glyph-name="uni00AD" unicode="&#xad;" horiz-adv-x="356" 
d="M282 285h-220q-1 15 2.5 36.5t8.5 27.5h220q-2 -47 -11 -64z" />
    <glyph glyph-name="registered" unicode="&#xae;" horiz-adv-x="705" 
d="M310 290v-123l37 -10q2 -11 -2 -20q-36 2 -59 2q-33 0 -67 -2q-2 12 1 20q15 2 40 10v278l-37 10q-1 9 2 22q22 -2 53 -2q35 0 60 2q61 4 97 -21t36 -71q-1 -63 -68 -85q54 -112 62 -122q12 -20 37 -19h8q1 -7 -1 -20q-13 -7 -32 -7q-31 0 -52 25q-8 9 -15.5 25.5
t-20.5 48.5t-27 60q-23 -3 -52 -1zM415 381q0 69 -70 69q-13 0 -35 -5v-127q16 -3 29 -3q40 0 58 14.5t18 51.5zM353 615q131 0 215 -88.5t84 -220.5q-1 -130 -84 -217.5t-215 -88.5q-133 2 -216 89t-84 217q0 132 84.5 220t215.5 89zM354 577q-110 -1 -183 -77.5
t-73 -192.5q1 -114 73 -191t183 -78q110 1 181 77.5t72 191.5q0 116 -72 193t-181 77z" />
    <glyph glyph-name="macron" unicode="&#xaf;" horiz-adv-x="530" 
d="M519 566h-518q-2 11 2 34.5t9 29.5h518q0 -47 -11 -64z" />
    <glyph glyph-name="degree" unicode="&#xb0;" horiz-adv-x="353" 
d="M179 700q56 0 96 -41t40 -97q0 -58 -40.5 -98.5t-98.5 -40.5t-97.5 40t-39.5 98q0 59 40.5 99t99.5 40zM89 563q0 -43 24 -71.5t63 -28.5q41 0 65 28.5t24 69.5q0 43 -24 71t-65 28q-39 0 -63 -28t-24 -69z" />
    <glyph glyph-name="plusminus" unicode="&#xb1;" horiz-adv-x="514" 
d="M287 513v-161h169q-2 -47 -11 -64h-158v-150q-11 -2 -35.5 2t-30.5 9v139h-166q-1 14 2.5 36t8.5 28h155v172q46 -2 66 -11zM445 46h-390q-1 14 2.5 36t8.5 28h390q-2 -47 -11 -64z" />
    <glyph glyph-name="twosuperior" unicode="&#xb2;" horiz-adv-x="389" 
d="M114 377h161l16 72q5 1 14 1q3 0 8 -0.5t8 -0.5q7 -42 7 -89q0 -16 -2 -46h-281v63q96 71 142.5 124t46.5 107q-1 81 -58 82q-39 -1 -64 -13l-13 -80q-8 -2 -18 -2q-8 0 -16 2q-11 56 -9 103q56 27 130 27q64 0 95 -30.5t31 -81.5q0 -21 -6.5 -40t-16 -34.5t-28 -36.5
t-50 -47.5t-43 -35t-54.5 -41.5v-3z" />
    <glyph glyph-name="threesuperior" unicode="&#xb3;" horiz-adv-x="385" 
d="M263 420q0 43 -28 62t-90 19v41q49 0 75.5 20t26.5 56q-1 71 -75 72q-30 0 -55 -13l-13 -80q-8 -2 -18 -2q-8 0 -16 2q-11 57 -9 103q52 27 125 27q136 0 136 -96q0 -41 -24.5 -65t-71.5 -36v-2q56 -8 85.5 -32.5t29.5 -73.5q-1 -58 -44.5 -88t-113.5 -30q-72 -1 -128 27
q-3 43 9 103q8 2 16 2q10 0 18 -2l13 -78q25 -12 74 -13q77 0 78 77z" />
    <glyph glyph-name="acute" unicode="&#xb4;" horiz-adv-x="203" 
d="M4 583l80 174q53 -9 80 -40q-78 -108 -124 -151q-23 4 -36 17z" />
    <glyph glyph-name="mu" unicode="&#xb5;" horiz-adv-x="623" 
d="M514 500v-459q31 -14 80 -20q3 -19 -5 -35q-37 -7 -88 -7q-35 0 -59 6l-15 86h-5q-47 -47 -88.5 -67t-93.5 -20q-50 0 -80 15v-164q-18 -3 -36 -3q-14 0 -29 3v665q16 5 40 5q10 0 60 -5v-351q0 -56 24 -76.5t70 -18.5q31 0 66 18.5t59 45.5v382q16 5 40 5q10 0 60 -5z
" />
    <glyph glyph-name="paragraph" unicode="&#xb6;" horiz-adv-x="551" 
d="M242 -80v361q-96 7 -149 68.5t-53 143.5q0 42 14.5 79t43 67t75 47t104.5 14h88q45 0 137 5q3 -19 -2 -35q-55 -9 -80 -20v-730q-16 -6 -33 -6q-15 0 -32 6v730h-48v-730q-17 -6 -33 -6t-32 6z" />
    <glyph glyph-name="periodcentered" unicode="&#xb7;" horiz-adv-x="244" 
d="M122 235q-63 0 -63 68t63 68t63 -68t-63 -68z" />
    <glyph glyph-name="cedilla" unicode="&#xb8;" horiz-adv-x="255" 
d="M123 -47q117 0 117 -85q0 -44 -36.5 -73t-99.5 -29q-45 1 -81 13q1 18 15 29q31 -12 60 -12q32 0 53 15.5t21 34.5q0 28 -24 43t-66 15l-2 103l36 -5z" />
    <glyph glyph-name="onesuperior" unicode="&#xb9;" horiz-adv-x="325" 
d="M210 713v-349l83 -20q3 -19 -5 -35q-80 5 -118 5t-121 -5q-3 19 2 35l79 20v278l-80 4q-6 12 -5 29q84 17 135 45z" />
    <glyph glyph-name="ordmasculine" unicode="&#xba;" horiz-adv-x="413" 
d="M212 723q77 0 119 -50t42 -119q0 -74 -45 -126.5t-120 -52.5q-79 0 -123.5 51t-44.5 121q0 72 45 124t127 52zM208 686q-47 0 -73 -38.5t-26 -95.5q0 -58 26 -98.5t73 -40.5q45 0 71 41t26 98t-26 95.5t-71 38.5z" />
    <glyph glyph-name="guillemotright" unicode="&#xbb;" horiz-adv-x="574" 
d="M292 70q-25 1 -42 27l189 191v4l-189 191q17 26 42 27l242 -200q6 -18 0 -40zM82 70q-25 1 -42 27l189 191v4l-189 191q17 26 42 27l242 -200q6 -18 0 -40z" />
    <glyph glyph-name="onequarter" unicode="&#xbc;" horiz-adv-x="835" 
d="M578 706l-290 -706q-34 -12 -67 -7l290 707q35 12 67 6zM719 80l73 -20q3 -19 -5 -35q-80 5 -108 5q-29 0 -111 -5q-3 19 2 35l69 20v55h-166l-6 18l186 292q36 0 66 -14v-247h67q6 -24 -9 -49h-58v-55zM539 184h100v160l-2 2l-34 -63zM210 713v-349l83 -20q3 -19 -5 -35
q-80 5 -118 5t-121 -5q-3 19 2 35l79 20v278l-80 4q-6 12 -5 29q84 17 135 45z" />
    <glyph glyph-name="onehalf" unicode="&#xbd;" horiz-adv-x="936" 
d="M575 706l-290 -706q-34 -12 -67 -7l290 707q35 12 67 6zM207 713v-349l83 -20q3 -19 -5 -35q-80 5 -118 5t-121 -5q-3 19 2 35l79 20v278l-80 4q-6 12 -5 29q84 17 135 45zM593 63h161l16 72q5 1 14 1q3 0 8 -0.5t8 -0.5q7 -42 7 -89q0 -16 -2 -46h-281v63
q96 71 142.5 124t46.5 107q-1 81 -58 82q-39 -1 -64 -13l-13 -80q-8 -2 -18 -2q-8 0 -16 2q-11 56 -9 103q56 27 130 27q64 0 95 -30.5t31 -81.5q0 -21 -6.5 -40t-16 -34.5t-28 -36.5t-50 -47.5t-43 -35t-54.5 -41.5v-3z" />
    <glyph glyph-name="threequarters" unicode="&#xbe;" horiz-adv-x="868" 
d="M611 706l-290 -706q-34 -12 -67 -7l290 707q35 12 67 6zM752 80l73 -20q3 -19 -5 -35q-80 5 -108 5q-29 0 -111 -5q-3 19 2 35l69 20v55h-166l-6 18l186 292q36 0 66 -14v-247h67q6 -24 -9 -49h-58v-55zM572 184h100v160l-2 2l-34 -63zM262 420q0 43 -28 62t-90 19v41
q49 0 75.5 20t26.5 56q-1 71 -75 72q-30 0 -55 -13l-13 -80q-8 -2 -18 -2q-8 0 -16 2q-11 57 -9 103q52 27 125 27q136 0 136 -96q0 -41 -24.5 -65t-71.5 -36v-2q56 -8 85.5 -32.5t29.5 -73.5q-1 -58 -44.5 -88t-113.5 -30q-72 -1 -128 27q-3 43 9 103q8 2 16 2q10 0 18 -2
l13 -78q25 -12 74 -13q77 0 78 77z" />
    <glyph glyph-name="questiondown" unicode="&#xbf;" horiz-adv-x="423" 
d="M304 465q0 -19 -22 -37.5t-45 -18.5q-25 0 -42 21.5t-17 43.5q0 20 21.5 38t46.5 18q23 0 40.5 -21.5t17.5 -43.5zM235 348q17 0 29 -6q35 -58 35 -102q0 -34 -17 -66t-41 -59t-49 -55t-41 -58.5t-16 -62.5q0 -45 24 -69.5t65 -24.5q51 0 83 24q7 71 22 117q15 7 34 1
q13 -54 14.5 -80t-1.5 -55q-80 -43 -170 -42q-71 0 -119.5 35t-48.5 93q0 44 19.5 78t48.5 59.5t60.5 53t51 61t19.5 76.5q0 25 -15 75q2 7 13 7z" />
    <glyph glyph-name="Agrave" unicode="&#xc0;" 
d="M436 240h-232l-65 -190l77 -20q3 -19 -5 -35q-90 5 -122 5q-17 0 -33 -1t-31 -2t-28 -2q-3 19 2 35q45 6 77 20l237 669q15 8 39 8l271 -677l77 -20q3 -19 -5 -35q-90 5 -122 5q-52 0 -145 -5q-3 19 2 35q47 6 80 20zM315 580h-2q-31 -111 -44 -148l-47 -137h192l-55 142
q-32 74 -44 143zM380 745l-169 97q14 49 54 76l138 -144q-9 -16 -23 -29z" />
    <glyph glyph-name="Aacute" unicode="&#xc1;" 
d="M436 240h-232l-65 -190l77 -20q3 -19 -5 -35q-90 5 -122 5q-17 0 -33 -1t-31 -2t-28 -2q-3 19 2 35q45 6 77 20l237 669q15 8 39 8l271 -677l77 -20q3 -19 -5 -35q-90 5 -122 5q-52 0 -145 -5q-3 19 2 35q47 6 80 20zM315 580h-2q-31 -111 -44 -148l-47 -137h192l-55 142
q-32 74 -44 143zM450 842l-169 -97q-14 13 -23 29l138 144q40 -27 54 -76z" />
    <glyph glyph-name="Acircumflex" unicode="&#xc2;" 
d="M436 240h-232l-65 -190l77 -20q3 -19 -5 -35q-90 5 -122 5q-17 0 -33 -1t-31 -2t-28 -2q-3 19 2 35q45 6 77 20l237 669q15 8 39 8l271 -677l77 -20q3 -19 -5 -35q-90 5 -122 5q-52 0 -145 -5q-3 19 2 35q47 6 80 20zM315 580h-2q-31 -111 -44 -148l-47 -137h192l-55 142
q-32 74 -44 143zM456 754q-40 25 -120 98q-51 -50 -120 -98q-20 8 -32 24l125 138q17 3 31 3q12 0 32 -3l122 -138q-12 -16 -38 -24z" />
    <glyph glyph-name="Atilde" unicode="&#xc3;" 
d="M436 240h-232l-65 -190l77 -20q3 -19 -5 -35q-90 5 -122 5q-17 0 -33 -1t-31 -2t-28 -2q-3 19 2 35q45 6 77 20l237 669q15 8 39 8l271 -677l77 -20q3 -19 -5 -35q-90 5 -122 5q-52 0 -145 -5q-3 19 2 35q47 6 80 20zM315 580h-2q-31 -111 -44 -148l-47 -137h192l-55 142
q-32 74 -44 143zM215 791q-12 3 -29 26q41 74 95 76q28 3 61 -15.5t49 -20.5q44 -8 66 26q10 0 29 -17q-21 -77 -78 -80q-36 -2 -72.5 17t-54.5 19q-43 4 -66 -31z" />
    <glyph glyph-name="Adieresis" unicode="&#xc4;" 
d="M436 240h-232l-65 -190l77 -20q3 -19 -5 -35q-90 5 -122 5q-17 0 -33 -1t-31 -2t-28 -2q-3 19 2 35q45 6 77 20l237 669q15 8 39 8l271 -677l77 -20q3 -19 -5 -35q-90 5 -122 5q-52 0 -145 -5q-3 19 2 35q47 6 80 20zM315 580h-2q-31 -111 -44 -148l-47 -137h192l-55 142
q-32 74 -44 143zM179 841q0 18 21.5 37t43.5 19q24 0 41 -21t17 -42q0 -19 -21.5 -38t-43.5 -19q-24 0 -41 21.5t-17 42.5zM368 841q0 18 21.5 37t43.5 19q24 0 41 -21t17 -42q0 -19 -21.5 -38t-43.5 -19q-24 0 -41 21.5t-17 42.5z" />
    <glyph glyph-name="Aring" unicode="&#xc5;" 
d="M436 240h-232l-65 -190l77 -20q3 -19 -5 -35q-90 5 -122 5q-17 0 -33 -1t-31 -2t-28 -2q-3 19 2 35q45 6 77 20l236 667q-31 7 -57 39q-33 40 -33 77q0 34 40.5 67.5t81.5 33.5q44 0 75.5 -38.5t31.5 -75.5q0 -36 -40 -70q-27 -24 -56 -31l268 -669l77 -20q3 -19 -5 -35
q-90 5 -122 5q-52 0 -145 -5q-3 19 2 35q47 6 80 20zM315 580h-2q-31 -111 -44 -148l-47 -137h192l-55 142q-32 74 -44 143zM335 772q20 0 39.5 16.5t19.5 34.5q0 19 -15.5 38t-37.5 19q-21 0 -41 -16.5t-20 -33.5q0 -19 16.5 -38.5t38.5 -19.5z" />
    <glyph glyph-name="AE" unicode="&#xc6;" horiz-adv-x="884" 
d="M417 240h-187l-84 -190l77 -20q3 -19 -5 -35q-90 5 -122 5q-17 0 -48 -2t-44 -3q-3 19 2 35q45 6 77 20l292 650h457q2 -102 -11 -175q-12 -6 -36 -3l-26 133h-237v-270h166l19 88q23 7 40 -5q-4 -39 -4 -107q0 -75 4 -118q-18 -7 -40 -2l-19 89h-166v-285h267l24 133
q21 3 35 -3q12 -58 12 -144v-31h-388q-41 0 -133 -5q-3 19 2 35q52 10 76 20v190zM413 655l-159 -360h163v360h-4z" />
    <glyph glyph-name="Ccedilla" unicode="&#xc7;" horiz-adv-x="646" 
d="M372 -36q117 0 117 -85q0 -44 -36.5 -73t-99.5 -29q-45 1 -81 13q1 18 15 29q31 -12 60 -12q32 0 53 15.5t21 34.5q0 28 -24 43t-66 15l-2 69q-37 5 -72 18q-64 24 -110.5 68.5t-74.5 115.5t-28 165q0 89 31 161.5t84 118.5t113.5 68t124.5 22q140 0 222 -46
q4 -71 -31 -164q-25 -3 -44 5l-11 129q-54 23 -129 22q-107 -2 -175 -92.5t-69 -223.5q0 -146 61.5 -231.5t176.5 -86.5q104 -1 194 76q21 -5 23 -33q-98 -96 -228 -96l-18 1z" />
    <glyph glyph-name="Egrave" unicode="&#xc8;" horiz-adv-x="585" 
d="M409 330h-186v-285h290l21 133q20 4 35 -3q14 -59 12 -175h-408q-40 0 -133 -5q-3 19 2 35q52 10 76 20v600l-77 20q-3 19 5 35q90 -5 122 -5h385q2 -102 -11 -175q-15 -6 -36 -3l-26 133h-257v-270h186l19 88q23 7 40 -5q-4 -39 -4 -107q0 -75 4 -118q-18 -7 -40 -2z
M369 745l-169 97q14 49 54 76l138 -144q-9 -16 -23 -29z" />
    <glyph glyph-name="Eacute" unicode="&#xc9;" horiz-adv-x="585" 
d="M409 330h-186v-285h290l21 133q20 4 35 -3q14 -59 12 -175h-408q-40 0 -133 -5q-3 19 2 35q52 10 76 20v600l-77 20q-3 19 5 35q90 -5 122 -5h385q2 -102 -11 -175q-15 -6 -36 -3l-26 133h-257v-270h186l19 88q23 7 40 -5q-4 -39 -4 -107q0 -75 4 -118q-18 -7 -40 -2z
M449 842l-169 -97q-14 13 -23 29l138 144q40 -27 54 -76z" />
    <glyph glyph-name="Ecircumflex" unicode="&#xca;" horiz-adv-x="585" 
d="M409 330h-186v-285h290l21 133q20 4 35 -3q14 -59 12 -175h-408q-40 0 -133 -5q-3 19 2 35q52 10 76 20v600l-77 20q-3 19 5 35q90 -5 122 -5h385q2 -102 -11 -175q-15 -6 -36 -3l-26 133h-257v-270h186l19 88q23 7 40 -5q-4 -39 -4 -107q0 -75 4 -118q-18 -7 -40 -2z
M450 754q-40 25 -120 98q-51 -50 -120 -98q-20 8 -32 24l125 138q17 3 31 3q12 0 32 -3l122 -138q-12 -16 -38 -24z" />
    <glyph glyph-name="Edieresis" unicode="&#xcb;" horiz-adv-x="585" 
d="M409 330h-186v-285h290l21 133q20 4 35 -3q14 -59 12 -175h-408q-40 0 -133 -5q-3 19 2 35q52 10 76 20v600l-77 20q-3 19 5 35q90 -5 122 -5h385q2 -102 -11 -175q-15 -6 -36 -3l-26 133h-257v-270h186l19 88q23 7 40 -5q-4 -39 -4 -107q0 -75 4 -118q-18 -7 -40 -2z
M168 841q0 18 21.5 37t43.5 19q24 0 41 -21t17 -42q0 -19 -21.5 -38t-43.5 -19q-24 0 -41 21.5t-17 42.5zM357 841q0 18 21.5 37t43.5 19q24 0 41 -21t17 -42q0 -19 -21.5 -38t-43.5 -19q-24 0 -41 21.5t-17 42.5z" />
    <glyph glyph-name="Igrave" unicode="&#xcc;" horiz-adv-x="339" 
d="M223 650v-600l77 -20q3 -19 -5 -35q-90 5 -122 5q-44 0 -137 -5q-3 21 2 35q55 7 80 20v600l-77 20q-3 19 5 35q90 -5 122 -5q45 0 137 5q3 -20 -2 -35q-52 -9 -80 -20zM186 746l-169 97q14 49 54 76l138 -144q-9 -16 -23 -29z" />
    <glyph glyph-name="Iacute" unicode="&#xcd;" horiz-adv-x="339" 
d="M223 650v-600l77 -20q3 -19 -5 -35q-90 5 -122 5q-44 0 -137 -5q-3 21 2 35q55 7 80 20v600l-77 20q-3 19 5 35q90 -5 122 -5q45 0 137 5q3 -20 -2 -35q-52 -9 -80 -20zM296 843l-169 -97q-14 13 -23 29l138 144q40 -27 54 -76z" />
    <glyph glyph-name="Icircumflex" unicode="&#xce;" horiz-adv-x="339" 
d="M223 650v-600l77 -20q3 -19 -5 -35q-90 5 -122 5q-44 0 -137 -5q-3 21 2 35q55 7 80 20v600l-77 20q-3 19 5 35q90 -5 122 -5q45 0 137 5q3 -20 -2 -35q-52 -9 -80 -20zM297 755q-40 25 -120 98q-51 -50 -120 -98q-20 8 -32 24l125 138q17 3 31 3q12 0 32 -3l122 -138
q-12 -16 -38 -24z" />
    <glyph glyph-name="Idieresis" unicode="&#xcf;" horiz-adv-x="339" 
d="M223 650v-600l77 -20q3 -19 -5 -35q-90 5 -122 5q-44 0 -137 -5q-3 21 2 35q55 7 80 20v600l-77 20q-3 19 5 35q90 -5 122 -5q45 0 137 5q3 -20 -2 -35q-52 -9 -80 -20zM15 842q0 18 21.5 37t43.5 19q24 0 41 -21t17 -42q0 -19 -21.5 -38t-43.5 -19q-24 0 -41 21.5
t-17 42.5zM204 842q0 18 21.5 37t43.5 19q24 0 41 -21t17 -42q0 -19 -21.5 -38t-43.5 -19q-24 0 -41 21.5t-17 42.5z" />
    <glyph glyph-name="Eth" unicode="&#xd0;" horiz-adv-x="739" 
d="M298 -7l-125 7q-44 0 -137 -5q-3 19 2 35q45 6 80 20v290h-80q-1 12 2.5 30.5t8.5 24.5h69v255l-77 20q-3 19 5 35q90 -5 122 -5l130 4q194 1 294.5 -89.5t100.5 -254.5q0 -99 -32.5 -172.5t-90 -115t-125 -60.5t-147.5 -19zM223 45q34 -3 66 -3q158 0 225.5 75t67.5 243
q0 152 -72 224.5t-236 72.5q-15 0 -51 -2v-260h189q-1 -38 -11 -55h-178v-295z" />
    <glyph glyph-name="Ntilde" unicode="&#xd1;" horiz-adv-x="757" 
d="M591 650l-77 20q-3 19 5 35q65 -5 100 -5q38 0 110 5q3 -19 -2 -35q-52 -9 -80 -20v-670q-11 -7 -20 -10l-398 505q-20 24 -59 95h-3q5 -31 5 -98v-422l77 -21q3 -19 -5 -35q-12 1 -33 2.5t-38.5 2.5t-33.5 1q-10 0 -102 -5q-3 19 2 35q38 6 78 20v600l-77 20q-3 19 5 35
q90 -5 122 -5h40l25 -52l309 -397q24 -31 54 -98h3l-3 36t-2 27t-1 33zM264 791q-12 3 -29 26q41 74 95 76q28 3 61 -15.5t49 -20.5q44 -8 66 26q10 0 29 -17q-21 -77 -78 -80q-36 -2 -72.5 17t-54.5 19q-43 4 -66 -31z" />
    <glyph glyph-name="Ograve" unicode="&#xd2;" horiz-adv-x="743" 
d="M39 351q0 166 93 267.5t238 101.5q148 0 241 -102.5t93 -266.5q0 -167 -92 -269t-242 -102q-151 0 -241 102t-90 269zM589 358q0 81 -24.5 151.5t-76.5 117.5t-121 47q-56 0 -98 -27.5t-66.5 -75t-36.5 -105t-12 -124.5q0 -135 61.5 -225.5t165.5 -90.5q102 0 155 94.5
t53 237.5zM395 745l-169 97q14 49 54 76l138 -144q-9 -16 -23 -29z" />
    <glyph glyph-name="Oacute" unicode="&#xd3;" horiz-adv-x="743" 
d="M39 351q0 166 93 267.5t238 101.5q148 0 241 -102.5t93 -266.5q0 -167 -92 -269t-242 -102q-151 0 -241 102t-90 269zM589 358q0 81 -24.5 151.5t-76.5 117.5t-121 47q-56 0 -98 -27.5t-66.5 -75t-36.5 -105t-12 -124.5q0 -135 61.5 -225.5t165.5 -90.5q102 0 155 94.5
t53 237.5zM495 842l-169 -97q-14 13 -23 29l138 144q40 -27 54 -76z" />
    <glyph glyph-name="Ocircumflex" unicode="&#xd4;" horiz-adv-x="743" 
d="M39 351q0 166 93 267.5t238 101.5q148 0 241 -102.5t93 -266.5q0 -167 -92 -269t-242 -102q-151 0 -241 102t-90 269zM589 358q0 81 -24.5 151.5t-76.5 117.5t-121 47q-56 0 -98 -27.5t-66.5 -75t-36.5 -105t-12 -124.5q0 -135 61.5 -225.5t165.5 -90.5q102 0 155 94.5
t53 237.5zM496 754q-40 25 -120 98q-51 -50 -120 -98q-20 8 -32 24l125 138q17 3 31 3q12 0 32 -3l122 -138q-12 -16 -38 -24z" />
    <glyph glyph-name="Otilde" unicode="&#xd5;" horiz-adv-x="743" 
d="M39 351q0 166 93 267.5t238 101.5q148 0 241 -102.5t93 -266.5q0 -167 -92 -269t-242 -102q-151 0 -241 102t-90 269zM589 358q0 81 -24.5 151.5t-76.5 117.5t-121 47q-56 0 -98 -27.5t-66.5 -75t-36.5 -105t-12 -124.5q0 -135 61.5 -225.5t165.5 -90.5q102 0 155 94.5
t53 237.5zM260 791q-12 3 -29 26q41 74 95 76q28 3 61 -15.5t49 -20.5q44 -8 66 26q10 0 29 -17q-21 -77 -78 -80q-36 -2 -72.5 17t-54.5 19q-43 4 -66 -31z" />
    <glyph glyph-name="Odieresis" unicode="&#xd6;" horiz-adv-x="743" 
d="M39 351q0 166 93 267.5t238 101.5q148 0 241 -102.5t93 -266.5q0 -167 -92 -269t-242 -102q-151 0 -241 102t-90 269zM589 358q0 81 -24.5 151.5t-76.5 117.5t-121 47q-56 0 -98 -27.5t-66.5 -75t-36.5 -105t-12 -124.5q0 -135 61.5 -225.5t165.5 -90.5q102 0 155 94.5
t53 237.5zM214 841q0 18 21.5 37t43.5 19q24 0 41 -21t17 -42q0 -19 -21.5 -38t-43.5 -19q-24 0 -41 21.5t-17 42.5zM403 841q0 18 21.5 37t43.5 19q24 0 41 -21t17 -42q0 -19 -21.5 -38t-43.5 -19q-24 0 -41 21.5t-17 42.5z" />
    <glyph glyph-name="multiply" unicode="&#xd7;" horiz-adv-x="445" 
d="M110 479l113 -115l118 118q29 -32 37 -53l-110 -110l122 -121q-8 -10 -27.5 -24t-27.5 -14l-113 113l-120 -120q-9 6 -23 26t-14 27l112 112l-122 122q31 29 55 39z" />
    <glyph glyph-name="Oslash" unicode="&#xd8;" horiz-adv-x="753" 
d="M44 351q0 162 91 265t239 104q93 0 162 -39l50 84q44 3 59 -10l-62 -106q126 -108 126 -298q0 -166 -92.5 -268t-242.5 -103q-86 0 -155 36l-36 -66q-35 -1 -61 10l49 87q-126 104 -127 304zM159 342q1 -130 59 -222l279 503q-51 51 -126 51q-72 0 -120 -47t-70 -121
t-22 -164zM594 358q-2 121 -58 219l-278 -503q54 -48 127 -48q100 1 154.5 95.5t54.5 236.5z" />
    <glyph glyph-name="Ugrave" unicode="&#xd9;" horiz-adv-x="745" 
d="M642 650v-375q0 -89 -15.5 -144t-45.5 -88t-78 -48t-120 -15t-123 12.5t-86.5 44t-53.5 87t-18 141.5v385l-77 20q-3 19 5 35q90 -5 122 -5q45 0 137 5q3 -19 -2 -35q-52 -7 -80 -20v-415q-1 -206 201 -205q38 0 66.5 9t49 26.5t31 37.5t17 40.5t10.5 53t4.5 53.5t0.5 55
v345l-77 20q-3 19 5 35q70 -5 102 -5q34 0 107 5q3 -20 -2 -35q-57 -8 -80 -20zM414 744l-169 97q14 49 54 76l138 -144q-9 -16 -23 -29z" />
    <glyph glyph-name="Uacute" unicode="&#xda;" horiz-adv-x="745" 
d="M642 650v-375q0 -89 -15.5 -144t-45.5 -88t-78 -48t-120 -15t-123 12.5t-86.5 44t-53.5 87t-18 141.5v385l-77 20q-3 19 5 35q90 -5 122 -5q45 0 137 5q3 -19 -2 -35q-52 -7 -80 -20v-415q-1 -206 201 -205q38 0 66.5 9t49 26.5t31 37.5t17 40.5t10.5 53t4.5 53.5t0.5 55
v345l-77 20q-3 19 5 35q70 -5 102 -5q34 0 107 5q3 -20 -2 -35q-57 -8 -80 -20zM544 841l-169 -97q-14 13 -23 29l138 144q40 -27 54 -76z" />
    <glyph glyph-name="Ucircumflex" unicode="&#xdb;" horiz-adv-x="745" 
d="M642 650v-375q0 -89 -15.5 -144t-45.5 -88t-78 -48t-120 -15t-123 12.5t-86.5 44t-53.5 87t-18 141.5v385l-77 20q-3 19 5 35q90 -5 122 -5q45 0 137 5q3 -19 -2 -35q-52 -7 -80 -20v-415q-1 -206 201 -205q38 0 66.5 9t49 26.5t31 37.5t17 40.5t10.5 53t4.5 53.5t0.5 55
v345l-77 20q-3 19 5 35q70 -5 102 -5q34 0 107 5q3 -20 -2 -35q-57 -8 -80 -20zM515 753q-40 25 -120 98q-51 -50 -120 -98q-20 8 -32 24l125 138q17 3 31 3q12 0 32 -3l122 -138q-12 -16 -38 -24z" />
    <glyph glyph-name="Udieresis" unicode="&#xdc;" horiz-adv-x="745" 
d="M642 650v-375q0 -89 -15.5 -144t-45.5 -88t-78 -48t-120 -15t-123 12.5t-86.5 44t-53.5 87t-18 141.5v385l-77 20q-3 19 5 35q90 -5 122 -5q45 0 137 5q3 -19 -2 -35q-52 -7 -80 -20v-415q-1 -206 201 -205q38 0 66.5 9t49 26.5t31 37.5t17 40.5t10.5 53t4.5 53.5t0.5 55
v345l-77 20q-3 19 5 35q70 -5 102 -5q34 0 107 5q3 -20 -2 -35q-57 -8 -80 -20zM243 840q0 18 21.5 37t43.5 19q24 0 41 -21t17 -42q0 -19 -21.5 -38t-43.5 -19q-24 0 -41 21.5t-17 42.5zM432 840q0 18 21.5 37t43.5 19q24 0 41 -21t17 -42q0 -19 -21.5 -38t-43.5 -19
q-24 0 -41 21.5t-17 42.5z" />
    <glyph glyph-name="Yacute" unicode="&#xdd;" horiz-adv-x="655" 
d="M385 321v-271l87 -20q3 -19 -5 -35q-90 5 -132 5q-44 0 -137 -5q-4 19 2 35q56 7 80 20v251l-215 349l-77 20q-3 19 5 35q90 -5 131 -5q47 0 140 5q3 -19 -2 -35q-57 -7 -81 -20l165 -284h4l166 284l-77 20q-3 19 5 35q70 -5 113 -5q34 0 107 5q3 -19 -2 -35
q-62 -8 -85 -20zM511 842l-169 -97q-14 13 -23 29l138 144q40 -27 54 -76z" />
    <glyph glyph-name="Thorn" unicode="&#xde;" horiz-adv-x="574" 
d="M224 650v-79l51 3q126 0 201 -54t75 -149q0 -59 -25.5 -103t-67.5 -69.5t-92 -37.5t-106 -12q-25 0 -36 1v-100l87 -20q3 -19 -5 -35q-100 5 -132 5q-44 0 -137 -5q-4 18 2 35q55 7 80 20v600l-77 20q-3 19 5 35q80 -5 122 -5q45 0 137 5q3 -19 -2 -35q-52 -9 -80 -20z
M279 533q-22 0 -55 -7v-328q20 -4 44 -4q74 0 121 47t47 124q0 78 -43.5 123t-113.5 45z" />
    <glyph glyph-name="germandbls" unicode="&#xdf;" horiz-adv-x="630" 
d="M195 0q-81 -1 -172 -5q-1 5 -1 14q0 11 3 21q50 13 70 20v435h-65q-1 16 2 29t8 21h55q0 107 59.5 168.5t170.5 61.5q93 -1 147.5 -48.5t65.5 -112.5q9 -47 -13 -77.5t-87 -52.5q-40 -14 -53.5 -30.5t-12.5 -43.5q-1 -30 22 -54.5t93 -58.5q76 -37 101 -72t24 -90
q-1 -73 -51 -109t-129 -36q-51 0 -84 7.5t-72 31.5q-2 77 18 135q28 4 50 -4l13 -107q27 -18 68 -17q43 0 70 19t27 57q2 35 -20 60t-95 59q-62 28 -91.5 64.5t-29.5 96.5q-1 48 23.5 76.5t83.5 48.5q95 31 75 105q-27 104 -141 104q-75 0 -104.5 -39.5t-27.5 -116.5v-560z
" />
    <glyph glyph-name="agrave" unicode="&#xe0;" horiz-adv-x="496" 
d="M130 120q0 -40 21.5 -61t58.5 -21q28 0 59.5 17t47.5 40v135q-103 0 -145 -24.5t-42 -85.5zM415 317v-268q15 -8 70 -20q3 -19 -5 -35q-37 -7 -84 -7q-33 0 -57 6l-14 52h-4q-60 -62 -149 -62q-64 0 -103 33.5t-39 93.5q1 165 287 160l1 88q1 116 -88 117q-53 0 -94 -15
l-13 -106q-20 -7 -44 -4q-21 76 -20 130q83 40 198 40q86 1 122 -44t36 -159zM206 757l80 -174q-13 -13 -36 -17q-45 42 -124 151q27 31 80 40z" />
    <glyph glyph-name="aacute" unicode="&#xe1;" horiz-adv-x="496" 
d="M130 120q0 -40 21.5 -61t58.5 -21q28 0 59.5 17t47.5 40v135q-103 0 -145 -24.5t-42 -85.5zM415 317v-268q15 -8 70 -20q3 -19 -5 -35q-37 -7 -84 -7q-33 0 -57 6l-14 52h-4q-60 -62 -149 -62q-64 0 -103 33.5t-39 93.5q1 165 287 160l1 88q1 116 -88 117q-53 0 -94 -15
l-13 -106q-20 -7 -44 -4q-21 76 -20 130q83 40 198 40q86 1 122 -44t36 -159zM197 583l80 174q53 -9 80 -40q-78 -108 -124 -151q-23 4 -36 17z" />
    <glyph glyph-name="acircumflex" unicode="&#xe2;" horiz-adv-x="496" 
d="M130 120q0 -40 21.5 -61t58.5 -21q28 0 59.5 17t47.5 40v135q-103 0 -145 -24.5t-42 -85.5zM415 317v-268q15 -8 70 -20q3 -19 -5 -35q-37 -7 -84 -7q-33 0 -57 6l-14 52h-4q-60 -62 -149 -62q-64 0 -103 33.5t-39 93.5q1 165 287 160l1 88q1 116 -88 117q-53 0 -94 -15
l-13 -106q-20 -7 -44 -4q-21 76 -20 130q83 40 198 40q86 1 122 -44t36 -159zM368 588q-24 -24 -63 -29q-31 49 -66 125q-47 -88 -79 -128q-32 6 -49 23q6 9 24.5 38t28.5 45t24.5 42t25.5 49q34 3 61 -2q31 -63 93 -163z" />
    <glyph glyph-name="atilde" unicode="&#xe3;" horiz-adv-x="496" 
d="M130 120q0 -40 21.5 -61t58.5 -21q28 0 59.5 17t47.5 40v135q-103 0 -145 -24.5t-42 -85.5zM415 317v-268q15 -8 70 -20q3 -19 -5 -35q-37 -7 -84 -7q-33 0 -57 6l-14 52h-4q-60 -62 -149 -62q-64 0 -103 33.5t-39 93.5q1 165 287 160l1 88q1 116 -88 117q-53 0 -94 -15
l-13 -106q-20 -7 -44 -4q-21 76 -20 130q83 40 198 40q86 1 122 -44t36 -159zM110 596q-14 6 -29 24q41 74 95 76q28 2 60 -15.5t50 -20.5q44 -8 66 26q17 0 29 -11q-23 -82 -78 -85q-34 -2 -70 16.5t-57 19.5q-43 4 -66 -30z" />
    <glyph glyph-name="adieresis" unicode="&#xe4;" horiz-adv-x="496" 
d="M130 120q0 -40 21.5 -61t58.5 -21q28 0 59.5 17t47.5 40v135q-103 0 -145 -24.5t-42 -85.5zM415 317v-268q15 -8 70 -20q3 -19 -5 -35q-37 -7 -84 -7q-33 0 -57 6l-14 52h-4q-60 -62 -149 -62q-64 0 -103 33.5t-39 93.5q1 165 287 160l1 88q1 116 -88 117q-53 0 -94 -15
l-13 -106q-20 -7 -44 -4q-21 76 -20 130q83 40 198 40q86 1 122 -44t36 -159zM95 652q0 18 21.5 37t43.5 19q24 0 41 -21t17 -42q0 -19 -21.5 -38t-43.5 -19q-24 0 -41 21.5t-17 42.5zM264 652q0 18 21.5 37t43.5 19q24 0 41 -21t17 -42q0 -19 -21.5 -38t-43.5 -19
q-24 0 -41 21.5t-17 42.5z" />
    <glyph glyph-name="aring" unicode="&#xe5;" horiz-adv-x="496" 
d="M130 120q0 -40 21.5 -61t58.5 -21q28 0 59.5 17t47.5 40v135q-103 0 -145 -24.5t-42 -85.5zM415 317v-268q15 -8 70 -20q3 -19 -5 -35q-37 -7 -84 -7q-33 0 -57 6l-14 52h-4q-60 -62 -149 -62q-64 0 -103 33.5t-39 93.5q1 165 287 160l1 88q1 116 -88 117q-53 0 -94 -15
l-13 -106q-20 -7 -44 -4q-21 76 -20 130q83 40 198 40q86 1 122 -44t36 -159zM245 704q-18 0 -34.5 -13t-16.5 -28q0 -16 13.5 -32t30.5 -16q19 0 35 13.5t16 28.5q0 16 -13 31.5t-31 15.5zM136 665q0 32 37 62.5t75 30.5q40 0 69 -35.5t29 -69.5q0 -33 -36 -63.5t-75 -30.5
q-38 0 -68.5 36t-30.5 70z" />
    <glyph glyph-name="ae" unicode="&#xe6;" horiz-adv-x="786" 
d="M425 270v-20q0 -101 40 -157t110 -56q48 0 75 8.5t66 35.5q16 -7 18 -24q-64 -76 -162 -77q-139 1 -209 101q-60 -102 -186 -102q-62 0 -104 35.5t-43 93.5q0 48 24.5 81.5t68 51.5t90.5 24t104 5l1 86q2 118 -88 119q-53 0 -94 -15l-13 -106q-20 -7 -44 -4
q-20 68 -20 130q87 41 198 40q106 1 133 -93q54 92 177 93q89 0 137 -58.5t48 -157.5q0 -8 -2 -26l-14 -11zM130 118q0 -40 21.5 -60t58.5 -20q57 0 83 45.5t24 146.5q-102 0 -144.5 -25.5t-42.5 -86.5zM560 473q-114 0 -130 -162l227 12q0 78 -23 114t-74 36z" />
    <glyph glyph-name="ccedilla" unicode="&#xe7;" horiz-adv-x="484" 
d="M293 -56q117 0 117 -85q0 -44 -36.5 -73t-99.5 -29q-45 1 -81 13q1 18 15 29q31 -12 60 -12q32 0 53 15.5t21 34.5q0 28 -24 43t-66 15l-2 90q-81 11 -140 70q-71 72 -73 195q0 125 74 196.5t188 71.5q83 0 155 -32q0 -74 -20 -136q-6 -1 -16 -1q-17 0 -28 5l-13 106
q-31 13 -75 14q-77 -1 -117.5 -61.5t-40.5 -162.5q0 -104 41.5 -158.5t110.5 -54.5q66 0 138 47q13 -8 18 -26q-71 -72 -165 -75z" />
    <glyph glyph-name="egrave" unicode="&#xe8;" horiz-adv-x="505" 
d="M143 270v-20q0 -100 40.5 -156t110.5 -56q45 0 72 8.5t68 36.5q16 -7 18 -24q-69 -75 -161 -76q-115 0 -184 72t-70 195q1 126 72.5 196.5t176.5 70.5q85 0 129.5 -57.5t44.5 -155.5q0 -17 -1 -26l-14 -11zM285 474q-47 0 -86.5 -42.5t-51.5 -120.5l218 12
q0 80 -17.5 115.5t-62.5 35.5zM239 755l80 -174q-13 -13 -36 -17q-45 42 -124 151q27 31 80 40z" />
    <glyph glyph-name="eacute" unicode="&#xe9;" horiz-adv-x="505" 
d="M143 270v-20q0 -100 40.5 -156t110.5 -56q45 0 72 8.5t68 36.5q16 -7 18 -24q-69 -75 -161 -76q-115 0 -184 72t-70 195q1 126 72.5 196.5t176.5 70.5q85 0 129.5 -57.5t44.5 -155.5q0 -17 -1 -26l-14 -11zM285 474q-47 0 -86.5 -42.5t-51.5 -120.5l218 12
q0 80 -17.5 115.5t-62.5 35.5zM231 581l80 174q53 -9 80 -40q-78 -108 -124 -151q-23 4 -36 17z" />
    <glyph glyph-name="ecircumflex" unicode="&#xea;" horiz-adv-x="505" 
d="M143 270v-20q0 -100 40.5 -156t110.5 -56q45 0 72 8.5t68 36.5q16 -7 18 -24q-69 -75 -161 -76q-115 0 -184 72t-70 195q1 126 72.5 196.5t176.5 70.5q85 0 129.5 -57.5t44.5 -155.5q0 -17 -1 -26l-14 -11zM285 474q-47 0 -86.5 -42.5t-51.5 -120.5l218 12
q0 80 -17.5 115.5t-62.5 35.5zM407 586q-24 -24 -63 -29q-31 49 -66 125q-47 -88 -79 -128q-32 6 -49 23q6 9 24.5 38t28.5 45t24.5 42t25.5 49q34 3 61 -2q31 -63 93 -163z" />
    <glyph glyph-name="edieresis" unicode="&#xeb;" horiz-adv-x="505" 
d="M143 270v-20q0 -100 40.5 -156t110.5 -56q45 0 72 8.5t68 36.5q16 -7 18 -24q-69 -75 -161 -76q-115 0 -184 72t-70 195q1 126 72.5 196.5t176.5 70.5q85 0 129.5 -57.5t44.5 -155.5q0 -17 -1 -26l-14 -11zM285 474q-47 0 -86.5 -42.5t-51.5 -120.5l218 12
q0 80 -17.5 115.5t-62.5 35.5zM129 650q0 18 21.5 37t43.5 19q24 0 41 -21t17 -42q0 -19 -21.5 -38t-43.5 -19q-24 0 -41 21.5t-17 42.5zM298 650q0 18 21.5 37t43.5 19q24 0 41 -21t17 -42q0 -19 -21.5 -38t-43.5 -19q-24 0 -41 21.5t-17 42.5z" />
    <glyph glyph-name="igrave" unicode="&#xec;" horiz-adv-x="290" 
d="M206 499v-449l67 -20q3 -19 -5 -35q-70 5 -112 5q-40 0 -122 -5q-3 19 2 35q55 12 70 20v390l-83 8q-3 20 5 35q83 12 140 27q17 -1 38 -11zM108 757l80 -174q-13 -13 -36 -17q-45 42 -124 151q27 31 80 40z" />
    <glyph glyph-name="iacute" unicode="&#xed;" horiz-adv-x="290" 
d="M206 499v-449l67 -20q3 -19 -5 -35q-70 5 -112 5q-40 0 -122 -5q-3 19 2 35q55 12 70 20v390l-83 8q-3 20 5 35q83 12 140 27q17 -1 38 -11zM119 583l80 174q53 -9 80 -40q-78 -108 -124 -151q-23 4 -36 17z" />
    <glyph glyph-name="icircumflex" unicode="&#xee;" horiz-adv-x="290" 
d="M205 499v-449l67 -20q3 -19 -5 -35q-70 5 -112 5q-40 0 -122 -5q-3 19 2 35q55 12 70 20v390l-83 8q-3 20 5 35q83 12 140 27q17 -1 38 -11zM269 588q-24 -24 -63 -29q-31 49 -66 125q-47 -88 -79 -128q-32 6 -49 23q6 9 24.5 38t28.5 45t24.5 42t25.5 49q34 3 61 -2
q31 -63 93 -163z" />
    <glyph glyph-name="idieresis" unicode="&#xef;" horiz-adv-x="290" 
d="M205 499v-449l67 -20q3 -19 -5 -35q-70 5 -112 5q-40 0 -122 -5q-3 19 2 35q55 12 70 20v390l-83 8q-3 20 5 35q83 12 140 27q17 -1 38 -11zM-4 652q0 18 21.5 37t43.5 19q24 0 41 -21t17 -42q0 -19 -21.5 -38t-43.5 -19q-24 0 -41 21.5t-17 42.5zM165 652q0 18 21.5 37
t43.5 19q24 0 41 -21t17 -42q0 -19 -21.5 -38t-43.5 -19q-24 0 -41 21.5t-17 42.5z" />
    <glyph glyph-name="eth" unicode="&#xf0;" horiz-adv-x="579" 
d="M458 691l-79 -46q81 -75 115.5 -174t34.5 -231q0 -57 -18.5 -104.5t-51.5 -82t-78 -54t-98 -19.5t-98 19.5t-78 54t-51.5 82t-18.5 104.5q0 56 19 104t52 83t78 54.5t97 19.5q75 0 137 -42q-25 97 -95 156l-98 -57q-2 3 -5 9t-6 13t-5.5 14t-2.5 10v2l71 41
q-51 29 -107 47q-3 12 -3 22q0 12 5 24q90 -15 161 -61l105 60q18 -32 18 -48zM422 227q0 51 -8.5 93.5t-26 72.5t-44 47t-62.5 17t-62 -16t-42.5 -45t-24.5 -70t-8 -92q0 -45 8.5 -83t26 -66.5t44 -44.5t62.5 -16q37 0 63 15.5t42.5 43t24 64.5t7.5 80z" />
    <glyph glyph-name="ntilde" unicode="&#xf1;" horiz-adv-x="603" 
d="M196 501l-3 -68l1 -1q84 82 188 84q66 0 103 -37.5t37 -107.5l1 -321l70 -20q3 -19 -5 -35q-80 5 -115 5q-36 0 -118 -5q-3 19 2 35q31 6 66 20v276q0 66 -20.5 93t-67.5 27q-81 0 -134 -60v-336l67 -20q3 -19 -5 -35q-80 5 -112 5q-30 0 -122 -5q-3 19 2 35q48 12 70 20
v390l-83 8q-3 20 5 35q77 13 139 27q17 -1 34 -9zM189 596q-14 6 -29 24q41 74 95 76q28 2 60 -15.5t50 -20.5q44 -8 66 26q17 0 29 -11q-23 -82 -78 -85q-34 -2 -70 16.5t-57 19.5q-43 4 -66 -30z" />
    <glyph glyph-name="ograve" unicode="&#xf2;" horiz-adv-x="582" 
d="M39 250q0 125 73 198t179 72q116 0 184 -77t68 -193q0 -127 -72 -199t-180 -71q-119 0 -185.5 77t-66.5 193zM435 236q2 95 -34 168t-112 73q-74 0 -108.5 -64.5t-33.5 -169.5q0 -46 8.5 -86t26.5 -70t45.5 -47t65.5 -17q62 -1 102 50t40 163zM247 758l80 -174
q-13 -13 -36 -17q-45 42 -124 151q27 31 80 40z" />
    <glyph glyph-name="oacute" unicode="&#xf3;" horiz-adv-x="582" 
d="M39 250q0 125 73 198t179 72q116 0 184 -77t68 -193q0 -127 -72 -199t-180 -71q-119 0 -185.5 77t-66.5 193zM435 236q2 95 -34 168t-112 73q-74 0 -108.5 -64.5t-33.5 -169.5q0 -46 8.5 -86t26.5 -70t45.5 -47t65.5 -17q62 -1 102 50t40 163zM258 584l80 174
q53 -9 80 -40q-78 -108 -124 -151q-23 4 -36 17z" />
    <glyph glyph-name="ocircumflex" unicode="&#xf4;" horiz-adv-x="582" 
d="M39 250q0 125 73 198t179 72q116 0 184 -77t68 -193q0 -127 -72 -199t-180 -71q-119 0 -185.5 77t-66.5 193zM435 236q2 95 -34 168t-112 73q-74 0 -108.5 -64.5t-33.5 -169.5q0 -46 8.5 -86t26.5 -70t45.5 -47t65.5 -17q62 -1 102 50t40 163zM419 589q-24 -24 -63 -29
q-31 49 -66 125q-47 -88 -79 -128q-32 6 -49 23q6 9 24.5 38t28.5 45t24.5 42t25.5 49q34 3 61 -2q31 -63 93 -163z" />
    <glyph glyph-name="otilde" unicode="&#xf5;" horiz-adv-x="582" 
d="M39 250q0 125 73 198t179 72q116 0 184 -77t68 -193q0 -127 -72 -199t-180 -71q-119 0 -185.5 77t-66.5 193zM435 236q2 95 -34 168t-112 73q-74 0 -108.5 -64.5t-33.5 -169.5q0 -46 8.5 -86t26.5 -70t45.5 -47t65.5 -17q62 -1 102 50t40 163zM171 597q-14 6 -29 24
q41 74 95 76q28 2 60 -15.5t50 -20.5q44 -8 66 26q17 0 29 -11q-23 -82 -78 -85q-34 -2 -70 16.5t-57 19.5q-43 4 -66 -30z" />
    <glyph glyph-name="odieresis" unicode="&#xf6;" horiz-adv-x="582" 
d="M39 250q0 125 73 198t179 72q116 0 184 -77t68 -193q0 -127 -72 -199t-180 -71q-119 0 -185.5 77t-66.5 193zM435 236q2 95 -34 168t-112 73q-74 0 -108.5 -64.5t-33.5 -169.5q0 -46 8.5 -86t26.5 -70t45.5 -47t65.5 -17q62 -1 102 50t40 163zM146 653q0 18 21.5 37
t43.5 19q24 0 41 -21t17 -42q0 -19 -21.5 -38t-43.5 -19q-24 0 -41 21.5t-17 42.5zM315 653q0 18 21.5 37t43.5 19q24 0 41 -21t17 -42q0 -19 -21.5 -38t-43.5 -19q-24 0 -41 21.5t-17 42.5z" />
    <glyph glyph-name="divide" unicode="&#xf7;" horiz-adv-x="504" 
d="M441 286h-390q-1 13 2.5 35.5t8.5 27.5h390q-2 -46 -11 -63zM191 156q0 18 21.5 36.5t43.5 18.5q25 -1 41 -21t16 -43q-1 -19 -21.5 -36.5t-44.5 -17.5q-24 1 -40 21.5t-16 41.5zM191 475q0 18 21.5 36.5t43.5 18.5q25 -1 41 -21t16 -43q-1 -19 -21.5 -36.5t-44.5 -17.5
q-24 1 -40 21.5t-16 41.5z" />
    <glyph glyph-name="oslash" unicode="&#xf8;" horiz-adv-x="582" 
d="M76 -40l48 76q-87 75 -88 214q1 121 70.5 195.5t181.5 74.5q70 0 128 -32l53 84q33 6 56 -9l-67 -106q82 -80 82 -207q-1 -124 -70 -197t-182 -73q-67 0 -119 26l-36 -57q-35 -2 -57 11zM144 243q0 -86 27 -141l205 335q-37 40 -90 40q-73 0 -108 -64t-34 -170zM432 236
q0 90 -25 150l-202 -331q34 -32 85 -32q74 1 108 59.5t34 153.5z" />
    <glyph glyph-name="ugrave" unicode="&#xf9;" horiz-adv-x="590" 
d="M504 48q14 -10 70 -20q3 -18 -5 -35q-37 -7 -82 -7q-32 0 -56 6l-17 74h-5q-50 -45 -93.5 -63.5t-95.5 -18.5q-135 0 -135 150v306l-73 8q-3 20 5 35q61 9 130 27q17 -1 38 -11v-350q0 -56 23 -76t71 -19q31 0 66 18.5t59 45.5v322l-73 8q-3 20 5 35q61 9 130 27
q17 -1 38 -11v-451zM225 756l80 -174q-13 -13 -36 -17q-45 42 -124 151q27 31 80 40z" />
    <glyph glyph-name="uacute" unicode="&#xfa;" horiz-adv-x="590" 
d="M504 48q14 -10 70 -20q3 -18 -5 -35q-37 -7 -82 -7q-32 0 -56 6l-17 74h-5q-50 -45 -93.5 -63.5t-95.5 -18.5q-135 0 -135 150v306l-73 8q-3 20 5 35q61 9 130 27q17 -1 38 -11v-350q0 -56 23 -76t71 -19q31 0 66 18.5t59 45.5v322l-73 8q-3 20 5 35q61 9 130 27
q17 -1 38 -11v-451zM256 582l80 174q53 -9 80 -40q-78 -108 -124 -151q-23 4 -36 17z" />
    <glyph glyph-name="ucircumflex" unicode="&#xfb;" horiz-adv-x="590" 
d="M504 48q14 -10 70 -20q3 -18 -5 -35q-37 -7 -82 -7q-32 0 -56 6l-17 74h-5q-50 -45 -93.5 -63.5t-95.5 -18.5q-135 0 -135 150v306l-73 8q-3 20 5 35q61 9 130 27q17 -1 38 -11v-350q0 -56 23 -76t71 -19q31 0 66 18.5t59 45.5v322l-73 8q-3 20 5 35q61 9 130 27
q17 -1 38 -11v-451zM417 587q-24 -24 -63 -29q-31 49 -66 125q-47 -88 -79 -128q-32 6 -49 23q6 9 24.5 38t28.5 45t24.5 42t25.5 49q34 3 61 -2q31 -63 93 -163z" />
    <glyph glyph-name="udieresis" unicode="&#xfc;" horiz-adv-x="590" 
d="M504 48q14 -10 70 -20q3 -18 -5 -35q-37 -7 -82 -7q-32 0 -56 6l-17 74h-5q-50 -45 -93.5 -63.5t-95.5 -18.5q-135 0 -135 150v306l-73 8q-3 20 5 35q61 9 130 27q17 -1 38 -11v-350q0 -56 23 -76t71 -19q31 0 66 18.5t59 45.5v322l-73 8q-3 20 5 35q61 9 130 27
q17 -1 38 -11v-451zM134 651q0 18 21.5 37t43.5 19q24 0 41 -21t17 -42q0 -19 -21.5 -38t-43.5 -19q-24 0 -41 21.5t-17 42.5zM303 651q0 18 21.5 37t43.5 19q24 0 41 -21t17 -42q0 -19 -21.5 -38t-43.5 -19q-24 0 -41 21.5t-17 42.5z" />
    <glyph glyph-name="yacute" unicode="&#xfd;" horiz-adv-x="573" 
d="M112 -269q-50 74 -57 128q19 13 38 14l64 -75q56 55 109 198l-182 454l-77 20q-3 19 5 35q90 -5 118 -5q31 0 124 5q3 -19 -2 -35q-57 -12 -69 -20l83 -201q42 -101 51 -155h3q1 4 7 29.5t13 49.5t19 54l85 223l-69 20q-3 19 5 35q67 -5 98 -5q35 0 97 5q3 -19 -2 -35
q-58 -12 -69 -20l-196 -497q-41 -104 -93 -163.5t-103 -58.5zM290 582l80 174q53 -9 80 -40q-78 -108 -124 -151q-23 4 -36 17z" />
    <glyph glyph-name="thorn" unicode="&#xfe;" horiz-adv-x="568" 
d="M167 745l-1 -283l5 -5q71 63 150 63q95 -1 151 -74.5t57 -182.5q0 -137 -67.5 -209.5t-188.5 -72.5q-49 2 -102 22v-203l87 -20q3 -19 -5 -35q-90 5 -132 5q-40 0 -122 -5q-3 19 2 35q48 10 70 20v883l-82 8q-3 20 5 35q41 5 138 27q16 -1 35 -8zM171 404v-345
q47 -32 100 -32q74 0 113 60t39 170q0 101 -35 152t-97 51q-35 0 -70 -17.5t-50 -38.5z" />
    <glyph glyph-name="ydieresis" unicode="&#xff;" horiz-adv-x="573" 
d="M112 -269q-50 74 -57 128q19 13 38 14l64 -75q56 55 109 198l-182 454l-77 20q-3 19 5 35q90 -5 118 -5q31 0 124 5q3 -19 -2 -35q-57 -12 -69 -20l83 -201q42 -101 51 -155h3q1 4 7 29.5t13 49.5t19 54l85 223l-69 20q-3 19 5 35q67 -5 98 -5q35 0 97 5q3 -19 -2 -35
q-58 -12 -69 -20l-196 -497q-41 -104 -93 -163.5t-103 -58.5zM169 651q0 18 21.5 37t43.5 19q24 0 41 -21t17 -42q0 -19 -21.5 -38t-43.5 -19q-24 0 -41 21.5t-17 42.5zM338 651q0 18 21.5 37t43.5 19q24 0 41 -21t17 -42q0 -19 -21.5 -38t-43.5 -19q-24 0 -41 21.5
t-17 42.5z" />
    <glyph glyph-name="dotlessi" unicode="&#x131;" horiz-adv-x="290" 
d="M205 499v-449l67 -20q3 -19 -5 -35q-70 5 -112 5q-40 0 -122 -5q-3 19 2 35q55 12 70 20v390l-83 8q-3 20 5 35q83 12 140 27q17 -1 38 -11z" />
    <glyph glyph-name="OE" unicode="&#x152;" horiz-adv-x="1082" 
d="M44 351q2 168 92.5 268t238.5 101q126 0 209 -81v61h425q2 -102 -11 -175q-15 -6 -36 -3l-26 133h-257v-270h186l19 88q23 7 40 -5q-4 -39 -4 -107q0 -75 4 -118q-18 -7 -40 -2l-19 89h-186v-285h290l21 133q21 4 35 -3q12 -58 12 -144v-31h-453v59q-81 -79 -209 -79
q-155 2 -242.5 103.5t-88.5 267.5zM386 26q64 0 108.5 43t66 114.5t23.5 160.5v26q-3 125 -60.5 214t-151.5 90q-56 0 -98 -28t-66.5 -74.5t-36.5 -104.5t-12 -125q0 -131 59 -222.5t168 -93.5z" />
    <glyph glyph-name="oe" unicode="&#x153;" horiz-adv-x="884" 
d="M527 270v-20q0 -102 38 -158.5t108 -56.5q48 0 76 9t68 36q16 -7 18 -24q-62 -74 -165 -76q-122 0 -192 79q-73 -77 -187 -79q-110 0 -182 75.5t-73 194.5q1 117 73.5 193t181.5 77q88 0 154 -52q16 -12 32 -44q24 47 75 71.5t113 24.5q90 -1 137 -59.5t47 -156.5
q0 -17 -1 -26l-14 -11zM435 236q0 106 -36 171.5t-110 66.5q-141 -1 -142 -231q0 -95 36.5 -155.5t109.5 -61.5q75 1 108.5 59t33.5 151zM665 480q-57 0 -91 -43.5t-42 -125.5l223 12q0 81 -20 119t-70 38z" />
    <glyph glyph-name="circumflex" unicode="&#x2c6;" horiz-adv-x="282" 
d="M255 588q-24 -24 -63 -29q-31 49 -66 125q-47 -88 -79 -128q-32 6 -49 23q6 9 24.5 38t28.5 45t24.5 42t25.5 49q34 3 61 -2q31 -63 93 -163z" />
    <glyph glyph-name="caron" unicode="&#x2c7;" horiz-adv-x="235" 
d="M-2 728q24 23 63 29q28 -44 68 -131q9 17 22 44t24.5 48.5t24.5 37.5q26 -2 48 -24q-45 -73 -86 -173q-42 -7 -61 -1q-13 26 -30.5 54.5t-40.5 64.5t-32 51z" />
    <glyph glyph-name="ring" unicode="&#x2da;" horiz-adv-x="255" 
d="M134 704q-18 0 -34.5 -13t-16.5 -28q0 -16 13.5 -32t30.5 -16q19 0 35 13.5t16 28.5q0 16 -13 31.5t-31 15.5zM25 665q0 32 37 62.5t75 30.5q40 0 69 -35.5t29 -69.5q0 -33 -36 -63.5t-75 -30.5q-38 0 -68.5 36t-30.5 70z" />
    <glyph glyph-name="tilde" unicode="&#x2dc;" horiz-adv-x="344" 
d="M51 596q-14 6 -29 24q41 74 95 76q28 2 60 -15.5t50 -20.5q44 -8 66 26q17 0 29 -11q-23 -82 -78 -85q-34 -2 -70 16.5t-57 19.5q-43 4 -66 -30z" />
    <glyph glyph-name="endash" unicode="&#x2013;" horiz-adv-x="657" 
d="M585 285h-523q-1 12 2.5 35t8.5 29h523q-2 -47 -11 -64z" />
    <glyph glyph-name="emdash" unicode="&#x2014;" horiz-adv-x="898" 
d="M824 285h-762q-1 13 2.5 35.5t8.5 28.5h762q-2 -47 -11 -64z" />
    <glyph glyph-name="quoteleft" unicode="&#x2018;" horiz-adv-x="215" 
d="M122 498q-43 1 -63 33t-20 76q0 49 22.5 88.5t58.5 56.5q20 0 25 -26q-31 -21 -42 -39.5t-11 -44.5q-1 -28 25 -27h15q23 0 37 -15t14 -41q0 -29 -17.5 -45t-43.5 -16z" />
    <glyph glyph-name="quoteright" unicode="&#x2019;" horiz-adv-x="205" 
d="M86 752q43 0 63 -32.5t20 -76.5q0 -49 -22.5 -88.5t-58.5 -56.5q-20 0 -25 26q31 21 42 39.5t11 44.5q1 28 -25 27h-15q-23 0 -37 15t-14 41q0 29 17.5 45t43.5 16z" />
    <glyph glyph-name="quotesinglbase" unicode="&#x201a;" horiz-adv-x="219" 
d="M86 118q43 0 63 -32.5t20 -76.5q0 -49 -22.5 -88.5t-58.5 -56.5q-20 0 -25 26q31 21 42 39.5t11 44.5q1 28 -25 27h-15q-23 0 -37 15t-14 41q0 29 17.5 45t43.5 16z" />
    <glyph glyph-name="quotedblleft" unicode="&#x201c;" horiz-adv-x="400" 
d="M125 498q-43 1 -63 33t-20 76q0 49 22.5 88.5t58.5 56.5q20 0 25 -26q-31 -21 -42 -39.5t-11 -44.5q-1 -28 25 -27h15q23 0 37 -15t14 -41q0 -29 -17.5 -45t-43.5 -16zM308 498q-43 1 -63 33t-20 76q0 49 22.5 88.5t58.5 56.5q20 0 25 -26q-31 -21 -42 -39.5t-11 -44.5
q-1 -28 25 -27h15q23 0 37 -15t14 -41q0 -29 -17.5 -45t-43.5 -16z" />
    <glyph glyph-name="quotedblright" unicode="&#x201d;" horiz-adv-x="390" 
d="M86 752q43 0 63 -32.5t20 -76.5q0 -49 -22.5 -88.5t-58.5 -56.5q-20 0 -25 26q31 21 42 39.5t11 44.5q1 28 -25 27h-15q-23 0 -37 15t-14 41q0 29 17.5 45t43.5 16zM277 752q43 0 63 -32.5t20 -76.5q0 -49 -22.5 -88.5t-58.5 -56.5q-20 0 -25 26q31 21 42 39.5t11 44.5
q1 28 -25 27h-15q-23 0 -37 15t-14 41q0 29 17.5 45t43.5 16z" />
    <glyph glyph-name="quotedblbase" unicode="&#x201e;" horiz-adv-x="410" 
d="M86 118q43 0 63 -32.5t20 -76.5q0 -49 -22.5 -88.5t-58.5 -56.5q-20 0 -25 26q31 21 42 39.5t11 44.5q1 28 -25 27h-15q-23 0 -37 15t-14 41q0 29 17.5 45t43.5 16zM277 118q43 0 63 -32.5t20 -76.5q0 -49 -22.5 -88.5t-58.5 -56.5q-20 0 -25 26q31 21 42 39.5t11 44.5
q1 28 -25 27h-15q-23 0 -37 15t-14 41q0 29 17.5 45t43.5 16z" />
    <glyph glyph-name="bullet" unicode="&#x2022;" horiz-adv-x="404" 
d="M49 382q0 47 54 92t110 45q59 0 100.5 -51.5t41.5 -103.5q0 -47 -53 -91.5t-111 -44.5q-56 0 -99 51.5t-43 102.5z" />
    <glyph glyph-name="guilsinglleft" unicode="&#x2039;" horiz-adv-x="364" 
d="M284 70l-242 200q-6 22 0 40l242 200q25 -1 42 -27l-189 -191v-4l189 -191q-17 -26 -42 -27z" />
    <glyph glyph-name="guilsinglright" unicode="&#x203a;" horiz-adv-x="364" 
d="M81 70q-25 1 -42 27l189 191v4l-189 191q17 26 42 27l242 -200q6 -18 0 -40l-242 -200v0z" />
    <glyph glyph-name="fraction" unicode="&#x2044;" horiz-adv-x="334" 
d="M345 706l-290 -706q-34 -12 -67 -7l290 707q35 12 67 6z" />
    <glyph glyph-name="foursuperior" unicode="&#x2074;" horiz-adv-x="389" 
d="M271 364l73 -20q3 -19 -5 -35q-80 5 -108 5q-29 0 -111 -5q-3 19 2 35l69 20v55h-166l-6 18l186 292q36 0 66 -14v-247h67q6 -24 -9 -49h-58v-55zM91 468h100v160l-2 2l-34 -63z" />
    <glyph glyph-name="Euro" unicode="&#x20ac;" horiz-adv-x="744" 
d="M64 426h71q13 75 48.5 132t85 92.5t104 52.5t110.5 17q107 0 207 -45q-16 -98 -50 -168q-4 -1 -14 -1q-20 0 -34 6l13 129q-53 26 -113 26q-84 0 -154.5 -66.5t-84.5 -174.5h226q-1 -33 -10 -50h-222v-26q0 -31 1 -45h210q-1 -33 -10 -50h-194q16 -101 75.5 -161.5
t143.5 -60.5q105 -1 194 76q21 -11 23 -33q-97 -95 -228 -96q-69 0 -137.5 30t-119 92t-68.5 153h-83q-1 15 1.5 27.5t8.5 22.5h66q-1 14 -1 45q0 17 1 26h-76q-1 14 1.5 27t8.5 23z" />
    <glyph glyph-name="minus" unicode="&#x2212;" horiz-adv-x="541" 
d="M459 285h-390q-1 13 2.5 35.5t8.5 28.5h390q-2 -47 -11 -64z" />
    <glyph glyph-name="noBreak" horiz-adv-x="260" 
 />
    <glyph glyph-name="foundryicon" horiz-adv-x="1056" 
d="M1007 282v-31h-16q1 -2 1 -5q0 -15 -11.5 -25t-33.5 -10q-9 0 -12 1v-15h18q39 0 39 -36q0 -8 -6 -23h-27v29h-46q-10 7 -10 22q0 18 14 30q-14 8 -14 28q0 16 11.5 26.5t31.5 10.5q18 0 31 -10q8 10 19 10q3 0 11 -2zM268 251l-23 -76q-10 -37 -43 -37q-19 0 -26 7v26
h17q16 0 21 11h-14l-24 69h-10v31h38l14 -49l5 -24l11 42h-9v31h43v-31zM158 212v-25q-18 -8 -41 -8q-31 0 -48.5 17.5t-17.5 48.5q0 33 17.5 52t50.5 19q16 0 39 -7v-40h-31v15q-3 1 -9 1q-29 0 -29 -36q0 -37 37 -37h32zM748 179q-49 0 -49 52q0 25 13.5 39t36.5 14
t36.5 -13.5t13.5 -38.5t-13.5 -39t-37.5 -14zM484 277q21 7 36 7q46 0 46 -38v-34h11v-27q-7 -5 -20 -5q-16 0 -22 7q-9 -8 -25 -8q-15 0 -24.5 8t-9.5 23q0 30 39 30h16v1q0 10 -22 10h-25v26zM432 212h29v-26q-15 -7 -37 -7q-53 0 -53 51q0 54 49 54q20 0 32 -12t12 -30
q0 -4 -2 -18h-55q4 -12 25 -12zM822 251h-11v31h34l10 -16q3 6 10 13q7 5 15 5q6 0 12 -2v-31h-34v-39h17v-30h-62v30h9v39zM294 251h-12v31h34l10 -16q3 6 10 13q7 5 15 5q6 0 12 -2v-31h-34v-39h17v-30h-62v30h10v39zM589 208v77h-12v31h47v-104h14v-28q-9 -4 -22 -4
q-27 0 -27 28zM651 199q0 20 20 20q22 0 22 -20q0 -19 -22 -19q-20 0 -20 19zM763 232q0 24 -14 24t-14 -24q0 -26 14 -26t14 26zM948 232q10 0 10 15t-10 15q-12 0 -12 -15t12 -15zM520 204q7 0 11 3v15h-8q-13 0 -13 -9t10 -9zM419 258q-10 0 -13 -16h25q0 16 -12 16z" />
    <glyph glyph-name="grave.case" horiz-adv-x="250" 
d="M198 796l-169 97q14 49 54 76l138 -144q-9 -16 -23 -29z" />
    <glyph glyph-name="acute.case" horiz-adv-x="250" 
d="M221 893l-169 -97q-14 13 -23 29l138 144q40 -27 54 -76z" />
    <glyph glyph-name="circumflex.case" horiz-adv-x="332" 
d="M290 805q-40 25 -120 98q-51 -50 -120 -98q-20 8 -32 24l125 138q17 3 31 3q12 0 32 -3l122 -138q-12 -16 -38 -24z" />
    <glyph glyph-name="dieresis.case" horiz-adv-x="364" 
d="M25 892q0 18 21.5 37t43.5 19q24 0 41 -21t17 -42q0 -19 -21.5 -38t-43.5 -19q-24 0 -41 21.5t-17 42.5zM214 892q0 18 21.5 37t43.5 19q24 0 41 -21t17 -42q0 -19 -21.5 -38t-43.5 -19q-24 0 -41 21.5t-17 42.5z" />
    <glyph glyph-name="tilde.case" horiz-adv-x="331" 
d="M51 842q-12 3 -29 26q41 74 95 76q28 3 61 -15.5t49 -20.5q44 -8 66 26q10 0 29 -17q-21 -77 -78 -80q-36 -2 -72.5 17t-54.5 19q-43 4 -66 -31z" />
    <glyph glyph-name="ring.case" horiz-adv-x="295" 
d="M143 822q20 0 39.5 16.5t19.5 34.5q0 19 -15.5 38t-37.5 19q-21 0 -41 -16.5t-20 -33.5q0 -19 16.5 -38.5t38.5 -19.5zM30 883q0 34 40.5 67.5t81.5 33.5q44 0 75.5 -38.5t31.5 -75.5q0 -36 -39.5 -70t-82.5 -34q-41 0 -74 40t-33 77z" />
    <glyph glyph-name="caron.case" horiz-adv-x="340" 
d="M47 971q39 -24 120 -98q51 49 120 98q20 -8 32 -24l-125 -138q-16 -3 -31 -3q-13 0 -32 3l-122 138q12 16 38 24z" />
    </font>
</defs>
</svg>
